<?xml version="1.0" encoding="UTF-8" standalone="no"?>
<svg
   version="1.1"
   viewBox="0 0 48 48"
   xml:space="preserve"
   id="svg51"
   sodipodi:docname="org.kde.powerplant.svg"
   inkscape:version="1.2.2 (b0a8486541, 2022-12-01)"
   xmlns:inkscape="http://www.inkscape.org/namespaces/inkscape"
   xmlns:sodipodi="http://sodipodi.sourceforge.net/DTD/sodipodi-0.dtd"
   xmlns="http://www.w3.org/2000/svg"
   xmlns:svg="http://www.w3.org/2000/svg"><sodipodi:namedview
     id="namedview53"
     pagecolor="#ffffff"
     bordercolor="#000000"
     borderopacity="0.25"
     inkscape:showpageshadow="2"
     inkscape:pageopacity="0.0"
     inkscape:pagecheckerboard="0"
     inkscape:deskcolor="#d1d1d1"
     showgrid="false"
     inkscape:zoom="11.363044"
     inkscape:cx="29.349529"
     inkscape:cy="26.357373"
     inkscape:window-width="1707"
     inkscape:window-height="980"
     inkscape:window-x="0"
     inkscape:window-y="0"
     inkscape:window-maximized="1"
     inkscape:current-layer="svg51" /><defs
     id="defs27"><linearGradient
       id="j"
       x1="6.615"
       x2="6.615"
       y1="1.0586"
       y2="11.642"
       gradientTransform="matrix(3.7795 0 0 3.7795 .0013289 .0013308)"
       gradientUnits="userSpaceOnUse"><stop
         stop-color="#c4dea9"
         offset="0"
         id="stop2" /><stop
         stop-color="#88bb6d"
         offset="1"
         id="stop4" /></linearGradient><radialGradient
       id="radialGradient15962"
       cx="24.105"
       cy="20.842"
       r="11.582"
       gradientTransform="matrix(1.005 -.7645 .34092 .44818 -8.149 32.061)"
       gradientUnits="userSpaceOnUse"><stop
         stop-color="#296931"
         offset="0"
         id="stop7" /><stop
         stop-color="#112f1a"
         offset="1"
         id="stop9" /></radialGradient><radialGradient
       id="radialGradient17084"
       cx="24.105"
       cy="20.842"
       r="11.582"
       gradientTransform="matrix(1.005 -.7645 .34092 .44818 -7.0992 33.11)"
       gradientUnits="userSpaceOnUse"><stop
         stop-color="#456929"
         offset="0"
         id="stop12" /><stop
         stop-color="#1c4d2b"
         stop-opacity=".30709"
         offset="1"
         id="stop14" /></radialGradient><radialGradient
       id="radialGradient18752"
       cx="24.105"
       cy="20.842"
       r="11.582"
       gradientTransform="matrix(1.005 -.7645 .34092 .44818 -8.149 32.061)"
       gradientUnits="userSpaceOnUse"><stop
         stop-color="#296931"
         offset="0"
         id="stop17" /><stop
         stop-color="#1c4d2b"
         offset="1"
         id="stop19" /></radialGradient><linearGradient
       id="linearGradient18776"
       x1="5.2607"
       x2="33.194"
       y1="37.568"
       y2="15.544"
       gradientUnits="userSpaceOnUse"><stop
         stop-color="#286d3d"
         offset="0"
         id="stop22" /><stop
         stop-color="#93cc77"
         offset="1"
         id="stop24" /></linearGradient></defs><rect
     x="4"
     y="4"
     width="40"
     height="40"
     rx="5"
     ry="5"
     fill="url(#j)"
     stroke-width="3.7795"
     paint-order="stroke fill markers"
     id="rect29" /><path
     d="m37.531 14.489c-0.77506-0.77506-9.688-2.6175-16.792 1.1899-10.257 5.4976-5.9289 12.693-7.4054 17.234 6.3858 0.28432 13.005 4.5813 19.373-6.2943 2.1986-3.755 2.0733-11.592 4.8238-12.13z"
     fill="url(#radialGradient15962)"
     stroke-width="1.05"
     id="path31" /><path
     d="m 38.581,15.539 c -0.14691,-0.14691 -1.0498,-1.0497 -1.0498,-1.0497 0,0 -11.103,-2.0204 -16.792,1.1899 -8.7573,4.942 -5.2551,18.23 -7.7758,17.684 l -7.7029,3.9296 1.5053,0.27574 7.0815,-3.3319 c 6.3858,0.28432 17.118725,2.356396 20.918907,-6.039525 C 38.566389,19.801194 35.8306,16.07664 38.5811,15.53864 Z"
     fill="url(#radialGradient17084)"
     stroke-width="1.05"
     id="path33"
     sodipodi:nodetypes="ccccccczcc" /><path
     d="m8.9972 4.0022a4.989 4.989 0 0 0-4.9965 4.9965v1.0016c0-2.7704 2.2299-5.0003 5.0003-5.0003h29.998c2.7704 0 5.0003 2.2299 5.0003 5.0003v14.003h0.0038v-15.001a4.989 4.989 0 0 0-5.0003-5.0003z"
     fill="#fff"
     opacity=".6"
     stroke-width="3.7795"
     id="path35" /><g
     id="g47"><path
       d="m8.9941 44a4.989 4.989 0 0 1-4.9965-4.9965v-1.0016c0 2.7704 2.2299 5.0003 5.0003 5.0003h29.998c2.7704 0 5.0003-2.2299 5.0003-5.0003v-14.003h0.0038v15.001a4.989 4.989 0 0 1-5.0003 5.0003z"
       fill="#12311b"
       opacity=".3"
       stroke-width="3.9784"
       id="path37" /><g
       stroke-width="1.05"
       id="g45"><path
         d="m37.531 14.489c-0.77506-0.77506-10.738-3.6673-17.841 0.14016-10.257 5.4976-4.8792 13.743-6.3556 18.284 6.3858 0.28432 13.005 4.5813 19.373-6.2943 2.1986-3.755 2.0733-11.592 4.8238-12.13z"
         fill="#286d3d"
         id="path39" /><path
         d="m 37.531,14.489 c -0.77506,-0.77506 -9.688,-2.6175 -16.792,1.1899 -10.257,5.4976 -6.2993,13.143 -7.7758,17.684 6.3858,0.28432 16.635755,2.262724 20.752907,-6.215725 C 37.833259,18.668726 34.7805,15.0267 37.531,14.4887 Z"
         fill="#12311b"
         id="path41"
         sodipodi:nodetypes="ccczcc" /><path
         d="m 37.531,14.489 c -0.77506,-0.77506 -9.688,-2.6175 -16.792,1.1899 -10.257,5.4976 -6.2993,13.143 -7.7758,17.684 6.3858,0.28432 16.213543,0.439257 19.749907,-7.009625 C 36.249471,18.904393 33.8464,15.2088 37.5308,14.4888 Z"
         fill="url(#radialGradient18752)"
         id="path43"
         sodipodi:nodetypes="ccczcc" /></g></g><path
     d="m33.193 15.545c-1.9349 0.86458-7.511 3.1749-11.609 5.1875-0.43256 0.21242-0.88181 0.43599-1.3457 0.66992a0.96431 0.92399 45.303 0 0 0.025391 1.6699c1.6221 0.89001 3.6251 1.8735 5.3496 2.6738-0.35692 0.19233-0.70069 0.37775-1.0273 0.55469-3.518 1.9056-5.177 2.9067-8.0918 4.5625-3.4415 1.955-9.362 5.358-11.234 6.4297 1.9548-0.91282 8.1477-3.7902 11.729-5.4766 3.0328-1.4283 4.8081-2.209 8.3926-3.9863 0.81254-0.4029 1.7175-0.85401 2.6973-1.3457a0.93189 0.8991 45.461 0 0-0.015625-1.6211c-1.4471-0.79348-3.4521-1.8302-5.3379-2.7246 3.9033-2.2817 8.718-5.4929 10.469-6.5938z"
     fill="url(#linearGradient18776)"
     stroke-width="1.05"
     id="path49" /></svg>
