<?xml version="1.0" encoding="UTF-8"?>
<svg version="1.1" viewBox="0 0 48 48" xml:space="preserve" xmlns="http://www.w3.org/2000/svg" xmlns:xlink="http://www.w3.org/1999/xlink"><defs><linearGradient id="j" x1="6.615" x2="6.615" y1="1.0586" y2="11.642" gradientTransform="matrix(3.7795 0 0 3.7795 .0013289 .0013308)" gradientUnits="userSpaceOnUse"><stop stop-color="#c4dea9" offset="0"/><stop stop-color="#88bb6d" offset="1"/></linearGradient><radialGradient id="radialGradient15962" cx="24.105" cy="20.842" r="11.582" gradientTransform="matrix(1.005 -.7645 .34092 .44818 -8.149 32.061)" gradientUnits="userSpaceOnUse"><stop stop-color="#296931" offset="0"/><stop stop-color="#112f1a" offset="1"/></radialGradient><radialGradient id="radialGradient17084" cx="24.105" cy="20.842" r="11.582" gradientTransform="matrix(1.005 -.7645 .34092 .44818 -7.0992 33.11)" gradientUnits="userSpaceOnUse"><stop stop-color="#456929" offset="0"/><stop stop-color="#1c4d2b" stop-opacity=".30709" offset="1"/></radialGradient><radialGradient id="radialGradient18752" cx="24.105" cy="20.842" r="11.582" gradientTransform="matrix(1.005 -.7645 .34092 .44818 -8.149 32.061)" gradientUnits="userSpaceOnUse"><stop stop-color="#296931" offset="0"/><stop stop-color="#1c4d2b" offset="1"/></radialGradient><linearGradient id="linearGradient18776" x1="5.2607" x2="33.194" y1="37.568" y2="15.544" gradientUnits="userSpaceOnUse"><stop stop-color="#286d3d" offset="0"/><stop stop-color="#93cc77" offset="1"/></linearGradient></defs><rect x="4" y="4" width="40" height="40" rx="5" ry="5" fill="url(#j)" stroke-width="3.7795" paint-order="stroke fill markers"/><path d="m37.531 14.489c-0.77506-0.77506-9.688-2.6175-16.792 1.1899-10.257 5.4976-5.9289 12.693-7.4054 17.234 6.3858 0.28432 13.005 4.5813 19.373-6.2943 2.1986-3.755 2.0733-11.592 4.8238-12.13z" fill="url(#radialGradient15962)" stroke-width="1.05"/><path d="m38.581 15.539c-0.14691-0.14691-1.0498-1.0497-1.0498-1.0497s-11.103-2.0204-16.792 1.1899c-8.7573 4.942-5.2551 18.23-7.7758 17.684l-7.7029 3.9296 1.5053 0.27574 7.0815-3.3319c6.3858 0.28432 13.963 3.7317 19.91-6.568 3.6084-6.2499 2.0733-11.592 4.8238-12.13z" fill="url(#radialGradient17084)" stroke-width="1.05"/><path d="m8.9972 4.0022a4.989 4.989 0 0 0-4.9965 4.9965v1.0016c0-2.7704 2.2299-5.0003 5.0003-5.0003h29.998c2.7704 0 5.0003 2.2299 5.0003 5.0003v14.003h0.0038v-15.001a4.989 4.989 0 0 0-5.0003-5.0003z" fill="#fff" opacity=".6" stroke-width="3.7795"/><g><path d="m8.9941 44a4.989 4.989 0 0 1-4.9965-4.9965v-1.0016c0 2.7704 2.2299 5.0003 5.0003 5.0003h29.998c2.7704 0 5.0003-2.2299 5.0003-5.0003v-14.003h0.0038v15.001a4.989 4.989 0 0 1-5.0003 5.0003z" fill="#12311b" opacity=".3" stroke-width="3.9784"/><g stroke-width="1.05"><path d="m37.531 14.489c-0.77506-0.77506-10.738-3.6673-17.841 0.14016-10.257 5.4976-4.8792 13.743-6.3556 18.284 6.3858 0.28432 13.005 4.5813 19.373-6.2943 2.1986-3.755 2.0733-11.592 4.8238-12.13z" fill="#286d3d"/><path d="m37.531 14.489c-0.77506-0.77506-9.688-2.6175-16.792 1.1899-10.257 5.4976-6.2993 13.143-7.7758 17.684 6.3858 0.28432 13.442 4.1701 19.744-6.7442 3.7254-6.4526 2.0733-11.592 4.8238-12.13z" fill="#12311b"/><path d="m37.531 14.489c-0.77506-0.77506-9.688-2.6175-16.792 1.1899-10.257 5.4976-6.2993 13.143-7.7758 17.684 6.3858 0.28432 13.454 1.6196 18.741-7.5381 3.7673-6.5252 2.1422-10.616 5.8266-11.336z" fill="url(#radialGradient18752)"/></g></g><path d="m33.193 15.545c-1.9349 0.86458-7.511 3.1749-11.609 5.1875-0.43256 0.21242-0.88181 0.43599-1.3457 0.66992a0.96431 0.92399 45.303 0 0 0.025391 1.6699c1.6221 0.89001 3.6251 1.8735 5.3496 2.6738-0.35692 0.19233-0.70069 0.37775-1.0273 0.55469-3.518 1.9056-5.177 2.9067-8.0918 4.5625-3.4415 1.955-9.362 5.358-11.234 6.4297 1.9548-0.91282 8.1477-3.7902 11.729-5.4766 3.0328-1.4283 4.8081-2.209 8.3926-3.9863 0.81254-0.4029 1.7175-0.85401 2.6973-1.3457a0.93189 0.8991 45.461 0 0-0.015625-1.6211c-1.4471-0.79348-3.4521-1.8302-5.3379-2.7246 3.9033-2.2817 8.718-5.4929 10.469-6.5938z" fill="url(#linearGradient18776)" stroke-width="1.05"/></svg>
