<?xml version="1.0" encoding="UTF-8" standalone="no"?>
<!-- Created with Inkscape (http://www.inkscape.org/) -->

<svg
   width="227.93211mm"
   height="273.98367mm"
   viewBox="0 0 227.93211 273.98368"
   version="1.1"
   id="svg23116"
   xml:space="preserve"
   sodipodi:docname="aloe_vera.svg"
   inkscape:version="1.2.2 (b0a8486541, 2022-12-01)"
   xmlns:inkscape="http://www.inkscape.org/namespaces/inkscape"
   xmlns:sodipodi="http://sodipodi.sourceforge.net/DTD/sodipodi-0.dtd"
   xmlns:xlink="http://www.w3.org/1999/xlink"
   xmlns="http://www.w3.org/2000/svg"
   xmlns:svg="http://www.w3.org/2000/svg"><sodipodi:namedview
     id="namedview23118"
     pagecolor="#ffffff"
     bordercolor="#000000"
     borderopacity="0.25"
     inkscape:showpageshadow="2"
     inkscape:pageopacity="0.0"
     inkscape:pagecheckerboard="0"
     inkscape:deskcolor="#d1d1d1"
     inkscape:document-units="mm"
     showgrid="false"
     showguides="true"
     inkscape:zoom="0.78102996"
     inkscape:cx="265.03465"
     inkscape:cy="384.74836"
     inkscape:window-width="1707"
     inkscape:window-height="980"
     inkscape:window-x="0"
     inkscape:window-y="0"
     inkscape:window-maximized="1"
     inkscape:current-layer="layer1"><inkscape:grid
       type="xygrid"
       id="grid30172"
       originx="19.631416"
       originy="-54.634846" /><sodipodi:guide
       position="102.85425,38.036753"
       orientation="1,0"
       id="guide30178"
       inkscape:locked="false" /></sodipodi:namedview><defs
     id="defs23113"><inkscape:path-effect
       effect="bspline"
       id="path-effect16811"
       is_visible="true"
       lpeversion="1"
       weight="33.333333"
       steps="2"
       helper_size="0"
       apply_no_weight="true"
       apply_with_weight="true"
       only_selected="false" /><inkscape:path-effect
       effect="bspline"
       id="path-effect16801"
       is_visible="true"
       lpeversion="1"
       weight="33.333333"
       steps="2"
       helper_size="0"
       apply_no_weight="true"
       apply_with_weight="true"
       only_selected="false" /><linearGradient
       inkscape:collect="always"
       id="linearGradient16793"><stop
         style="stop-color:#3b692b;stop-opacity:1;"
         offset="0"
         id="stop16787" /><stop
         style="stop-color:#5e9543;stop-opacity:1;"
         offset="0.51282054"
         id="stop16789" /><stop
         style="stop-color:#bfe254;stop-opacity:1;"
         offset="1"
         id="stop16791" /></linearGradient><inkscape:path-effect
       effect="bspline"
       id="path-effect16784"
       is_visible="true"
       lpeversion="1"
       weight="33.333333"
       steps="2"
       helper_size="0"
       apply_no_weight="true"
       apply_with_weight="true"
       only_selected="false" /><inkscape:path-effect
       effect="bspline"
       id="path-effect16727"
       is_visible="true"
       lpeversion="1"
       weight="33.333333"
       steps="2"
       helper_size="0"
       apply_no_weight="true"
       apply_with_weight="true"
       only_selected="false" /><inkscape:path-effect
       effect="bspline"
       id="path-effect16720"
       is_visible="true"
       lpeversion="1"
       weight="33.333333"
       steps="2"
       helper_size="0"
       apply_no_weight="true"
       apply_with_weight="true"
       only_selected="false" /><linearGradient
       id="linearGradient16559">
      <stop
   style="stop-color:#386e2a;stop-opacity:1;"
   offset="0"
   id="stop16553" /><stop
   style="stop-color:#538c3c;stop-opacity:1;"
   offset="0.16987181"
   id="stop16561" />
      <stop
   style="stop-color:#69a44a;stop-opacity:1;"
   offset="0.62568194"
   id="stop16555" /><stop
   style="stop-color:#55913b;stop-opacity:1;"
   offset="0.8378132"
   id="stop16563" />
      <stop
   style="stop-color:#427e2d;stop-opacity:1;"
   offset="1"
   id="stop16557" />
    </linearGradient><inkscape:path-effect
       effect="bspline"
       id="path-effect15817"
       is_visible="true"
       lpeversion="1"
       weight="33.333333"
       steps="2"
       helper_size="0"
       apply_no_weight="true"
       apply_with_weight="true"
       only_selected="false" /><inkscape:path-effect
       effect="bspline"
       id="path-effect15757"
       is_visible="true"
       lpeversion="1"
       weight="33.333333"
       steps="2"
       helper_size="0"
       apply_no_weight="true"
       apply_with_weight="true"
       only_selected="false" /><linearGradient
       inkscape:collect="always"
       id="linearGradient15741"><stop
         style="stop-color:#3b682c;stop-opacity:1;"
         offset="0"
         id="stop15735" /><stop
         style="stop-color:#649f47;stop-opacity:1;"
         offset="0.51282054"
         id="stop15737" /><stop
         style="stop-color:#d5ec8e;stop-opacity:1;"
         offset="1"
         id="stop15739" /></linearGradient><inkscape:path-effect
       effect="bspline"
       id="path-effect12351"
       is_visible="true"
       lpeversion="1"
       weight="33.333333"
       steps="2"
       helper_size="0"
       apply_no_weight="true"
       apply_with_weight="true"
       only_selected="false" /><inkscape:path-effect
       effect="bspline"
       id="path-effect12210"
       is_visible="true"
       lpeversion="1"
       weight="33.333333"
       steps="2"
       helper_size="0"
       apply_no_weight="true"
       apply_with_weight="true"
       only_selected="false" /><inkscape:path-effect
       effect="bspline"
       id="path-effect12203"
       is_visible="true"
       lpeversion="1"
       weight="33.333333"
       steps="2"
       helper_size="0"
       apply_no_weight="true"
       apply_with_weight="true"
       only_selected="false" /><inkscape:path-effect
       effect="bspline"
       id="path-effect12026"
       is_visible="true"
       lpeversion="1"
       weight="33.333333"
       steps="2"
       helper_size="0"
       apply_no_weight="true"
       apply_with_weight="true"
       only_selected="false" /><inkscape:path-effect
       effect="bspline"
       id="path-effect12015"
       is_visible="true"
       lpeversion="1"
       weight="33.333333"
       steps="2"
       helper_size="0"
       apply_no_weight="true"
       apply_with_weight="true"
       only_selected="false" /><linearGradient
       inkscape:collect="always"
       id="linearGradient7628"><stop
         style="stop-color:#498035;stop-opacity:1;"
         offset="0"
         id="stop7624" /><stop
         style="stop-color:#649f47;stop-opacity:1;"
         offset="0.51282054"
         id="stop12018" /><stop
         style="stop-color:#d5ec8e;stop-opacity:1;"
         offset="1"
         id="stop7626" /></linearGradient><inkscape:path-effect
       effect="bspline"
       id="path-effect7503"
       is_visible="true"
       lpeversion="1"
       weight="33.333333"
       steps="2"
       helper_size="0"
       apply_no_weight="true"
       apply_with_weight="true"
       only_selected="false" /><linearGradient
       id="linearGradient58565">
      <stop
   style="stop-color:#ffffff;stop-opacity:1;"
   offset="0"
   id="stop58559" />
      <stop
   style="stop-color:#7bbe92;stop-opacity:1"
   offset=".5"
   id="stop58561" />
      <stop
   style="stop-color:#37a276;stop-opacity:1"
   offset="1"
   id="stop58563" />
    </linearGradient><linearGradient
       id="linearGradient58557">
      <stop
   style="stop-color:#ffffff;stop-opacity:1;"
   offset="0"
   id="stop58551" />
      <stop
   style="stop-color:#7bbe92;stop-opacity:1"
   offset=".5"
   id="stop58553" />
      <stop
   style="stop-color:#37a276;stop-opacity:1"
   offset="1"
   id="stop58555" />
    </linearGradient><linearGradient
       id="linearGradient58549">
      <stop
   style="stop-color:#68934a;stop-opacity:0.99215686;"
   offset="0"
   id="stop58543" />
      <stop
   style="stop-color:#9dc481;stop-opacity:1;"
   offset="0.5"
   id="stop58545" />
      <stop
   style="stop-color:#5b8936;stop-opacity:1;"
   offset="1"
   id="stop58547" />
    </linearGradient><linearGradient
       id="linearGradient58541">
      <stop
   style="stop-color:#68934a;stop-opacity:0.99215686;"
   offset="0"
   id="stop58535" />
      <stop
   style="stop-color:#9dc481;stop-opacity:1;"
   offset="0.5"
   id="stop58537" />
      <stop
   style="stop-color:#5b8936;stop-opacity:1;"
   offset="1"
   id="stop58539" />
    </linearGradient><linearGradient
       id="linearGradient58533">
      <stop
   style="stop-color:#569b42;stop-opacity:0.9921568;"
   offset="0"
   id="stop58527" />
      <stop
   style="stop-color:#8cd075;stop-opacity:1;"
   offset="0.5"
   id="stop58529" />
      <stop
   style="stop-color:#488936;stop-opacity:1;"
   offset="1"
   id="stop58531" />
    </linearGradient><linearGradient
       id="linearGradient58525">
      <stop
   style="stop-color:#3ba978;stop-opacity:1"
   offset="0"
   id="stop58519" />
      <stop
   style="stop-color:#ffffff;stop-opacity:1;"
   offset="0.5"
   id="stop58521" />
      <stop
   style="stop-color:#37a276;stop-opacity:1"
   offset="1"
   id="stop58523" />
    </linearGradient><linearGradient
       id="linearGradient55059">
      <stop
   style="stop-color:#f8fdfa;stop-opacity:1;"
   offset="0"
   id="stop55053" />
      <stop
   style="stop-color:#7bbe92;stop-opacity:1"
   offset=".5"
   id="stop55055" />
      <stop
   style="stop-color:#ffffff;stop-opacity:1;"
   offset="1"
   id="stop55057" />
    </linearGradient><linearGradient
       id="linearGradient48565">
      <stop
   style="stop-color:#68934a;stop-opacity:0.99215686;"
   offset="0"
   id="stop48559" />
      <stop
   style="stop-color:#9dc481;stop-opacity:0.92941177;"
   offset="0.5"
   id="stop48561" />
      <stop
   style="stop-color:#5b8936;stop-opacity:1;"
   offset="1"
   id="stop48563" />
    </linearGradient><linearGradient
       id="linearGradient38779">
      <stop
   style="stop-color:#1b7245;stop-opacity:1;"
   offset="0"
   id="stop38773" />
      <stop
   style="stop-color:#3dad6e;stop-opacity:1;"
   offset="0.5"
   id="stop38775" />
      <stop
   style="stop-color:#0f573f;stop-opacity:1;"
   offset="1"
   id="stop38777" />
    </linearGradient><linearGradient
       inkscape:collect="always"
       id="linearGradient32131"><stop
         style="stop-color:#6c5353;stop-opacity:1;"
         offset="0"
         id="stop32127" /><stop
         style="stop-color:#493838;stop-opacity:1;"
         offset="1"
         id="stop32129" /></linearGradient><linearGradient
       inkscape:collect="always"
       id="linearGradient31640"><stop
         style="stop-color:#916f6f;stop-opacity:1;"
         offset="0"
         id="stop31636" /><stop
         style="stop-color:#6c5353;stop-opacity:1;"
         offset="1"
         id="stop31638" /></linearGradient><linearGradient
       id="linearGradient30116">
      <stop
   style="stop-color:#1b722e;stop-opacity:1;"
   offset="0"
   id="stop30110" />
      <stop
   style="stop-color:#3dad53;stop-opacity:1;"
   offset="0.5"
   id="stop30112" />
      <stop
   style="stop-color:#0f5730;stop-opacity:1;"
   offset="1"
   id="stop30114" />
    </linearGradient><linearGradient
       id="linearGradient30108">
      <stop
   style="stop-color:#386e2a;stop-opacity:1;"
   offset="0"
   id="stop30102" />
      <stop
   style="stop-color:#69a44a;stop-opacity:1;"
   offset="0.5"
   id="stop30104" />
      <stop
   style="stop-color:#427e2d;stop-opacity:1;"
   offset="1"
   id="stop30106" />
    </linearGradient><inkscape:path-effect
       effect="bspline"
       id="path-effect24496"
       is_visible="true"
       lpeversion="1"
       weight="33.333333"
       steps="2"
       helper_size="0"
       apply_no_weight="true"
       apply_with_weight="true"
       only_selected="false" /><inkscape:path-effect
       effect="bspline"
       id="path-effect24492"
       is_visible="true"
       lpeversion="1"
       weight="33.333333"
       steps="2"
       helper_size="0"
       apply_no_weight="true"
       apply_with_weight="true"
       only_selected="false" /><inkscape:path-effect
       effect="bspline"
       id="path-effect24488"
       is_visible="true"
       lpeversion="1"
       weight="33.333333"
       steps="2"
       helper_size="0"
       apply_no_weight="true"
       apply_with_weight="true"
       only_selected="false" /><linearGradient
       xlink:href="#linearGradient58533"
       id="aQ"
       gradientUnits="userSpaceOnUse"
       x1="-123.4"
       y1="68"
       x2="-35"
       y2="55.200001" /><linearGradient
       id="b">
      <stop
   style="stop-color:#1b7263;stop-opacity:1"
   offset="0"
   id="stop23159" />
      <stop
   style="stop-color:#3dad7a;stop-opacity:1"
   offset=".5"
   id="stop23161" />
      <stop
   style="stop-color:#11615c;stop-opacity:1"
   offset="1"
   id="stop23163" />
    </linearGradient><linearGradient
       xlink:href="#c"
       id="aR"
       gradientUnits="userSpaceOnUse"
       x1="-110.8"
       y1="74.599998"
       x2="-37"
       y2="53.599998" /><linearGradient
       id="c">
      <stop
   style="stop-color:#3ba978;stop-opacity:1"
   offset="0"
   id="stop23152" />
      <stop
   style="stop-color:#7bbe92;stop-opacity:1"
   offset=".5"
   id="stop23154" />
      <stop
   style="stop-color:#37a276;stop-opacity:1"
   offset="1"
   id="stop23156" />
    </linearGradient><linearGradient
       inkscape:collect="always"
       xlink:href="#linearGradient31640"
       id="linearGradient31642"
       x1="58.593369"
       y1="268.79114"
       x2="123.90515"
       y2="268.79114"
       gradientUnits="userSpaceOnUse"
       gradientTransform="translate(0,-10.583333)" /><linearGradient
       inkscape:collect="always"
       xlink:href="#linearGradient32131"
       id="linearGradient32133"
       x1="55.153786"
       y1="238.10107"
       x2="127.34473"
       y2="238.10107"
       gradientUnits="userSpaceOnUse"
       gradientTransform="translate(0,-10.583333)" /><mask
       maskUnits="userSpaceOnUse"
       id="mask40621"><rect
         style="opacity:1;fill:url(#linearGradient40625);fill-opacity:1;stroke:none;stroke-width:0.15;stroke-linecap:round;stroke-dasharray:none;stroke-opacity:0.7;paint-order:fill markers stroke"
         id="rect40623"
         width="31.75"
         height="33.226566"
         x="37.041664"
         y="53.574165"
         rx="1.1545725"
         ry="1.1545725" /></mask><linearGradient
       inkscape:collect="always"
       xlink:href="#linearGradient39839"
       id="linearGradient40625"
       gradientUnits="userSpaceOnUse"
       x1="54.970371"
       y1="77.745987"
       x2="54.970371"
       y2="70.177307" /><linearGradient
       inkscape:collect="always"
       id="linearGradient39839"><stop
         style="stop-color:#ffffff;stop-opacity:0;"
         offset="0"
         id="stop39835" /><stop
         style="stop-color:#ffffff;stop-opacity:1;"
         offset="1"
         id="stop39837" /></linearGradient><linearGradient
       inkscape:collect="always"
       xlink:href="#linearGradient7628"
       id="linearGradient7630"
       x1="56.434937"
       y1="217.48198"
       x2="75.165871"
       y2="205.32812"
       gradientUnits="userSpaceOnUse"
       gradientTransform="translate(0,-10.583333)" /><linearGradient
       inkscape:collect="always"
       xlink:href="#linearGradient7628"
       id="linearGradient12028"
       gradientUnits="userSpaceOnUse"
       x1="55.865372"
       y1="217.86169"
       x2="72.697762"
       y2="206.6571"
       gradientTransform="matrix(-1,0,0,1,180.80844,-10.583333)" /><linearGradient
       inkscape:collect="always"
       xlink:href="#linearGradient15741"
       id="linearGradient12212"
       gradientUnits="userSpaceOnUse"
       x1="56.434937"
       y1="217.48198"
       x2="75.165871"
       y2="205.32812"
       gradientTransform="rotate(5.0931133,346.79601,275.43118)" /><linearGradient
       inkscape:collect="always"
       xlink:href="#linearGradient15741"
       id="linearGradient15759"
       gradientUnits="userSpaceOnUse"
       gradientTransform="matrix(-0.99574071,0.09219784,0.09219784,0.99574071,154.61825,-29.754927)"
       x1="56.434937"
       y1="217.48198"
       x2="75.165871"
       y2="205.32812" /><linearGradient
       inkscape:collect="always"
       xlink:href="#linearGradient16559"
       id="linearGradient16551"
       x1="72.729385"
       y1="181.83797"
       x2="95.249748"
       y2="181.02422"
       gradientUnits="userSpaceOnUse"
       gradientTransform="translate(0,-10.583333)" /><linearGradient
       inkscape:collect="always"
       xlink:href="#linearGradient16793"
       id="linearGradient16729"
       gradientUnits="userSpaceOnUse"
       gradientTransform="rotate(20.093113,175.95468,231.06798)"
       x1="56.434937"
       y1="217.48198"
       x2="75.165871"
       y2="205.32812" /><linearGradient
       inkscape:collect="always"
       xlink:href="#linearGradient16793"
       id="linearGradient16803"
       gradientUnits="userSpaceOnUse"
       gradientTransform="matrix(-0.89683063,0.44237407,0.44237407,0.89683063,55.365402,-41.862035)"
       x1="56.434937"
       y1="217.48198"
       x2="70.071609"
       y2="205.3006" /><linearGradient
       inkscape:collect="always"
       xlink:href="#linearGradient15741"
       id="linearGradient16813"
       gradientUnits="userSpaceOnUse"
       gradientTransform="matrix(-0.97070974,0.24025529,0.24025529,0.97070974,111.46612,-31.303904)"
       x1="56.434937"
       y1="217.48198"
       x2="75.165871"
       y2="205.32812" /></defs><g
     inkscape:label="Layer 1"
     inkscape:groupmode="layer"
     id="layer1"
     transform="translate(19.631418,-54.634834)"><path
       id="path31634"
       style="opacity:1;fill:#483737;fill-opacity:1;stroke-width:0.264583;stroke-linecap:round"
       d="m 56.517543,231.31466 -1.363759,-10.88633 c 17.267618,-4.44877 54.509066,-3.2791 72.190946,0 l -1.99637,12.2483 c -24.54845,-4.62134 -45.220541,-5.68374 -68.830817,-1.36197 z"
       sodipodi:nodetypes="ccccc" /><path
       style="fill:url(#linearGradient16813);fill-opacity:1;stroke-width:0.264583;stroke-linecap:round"
       d="m 122.87586,144.46282 c -4.84776,10.11832 -9.69585,20.23731 -12.47809,30.4042 -2.78225,10.16688 -3.4993,20.38302 -6.25562,29.95711 -2.75632,9.5741 -7.551203,18.50475 -12.160721,23.33797 -4.609518,4.83322 -9.032627,5.56819 -10.981014,4.37432 -1.948387,-1.19387 -1.421972,-4.31675 0.243287,-7.77245 1.665259,-3.45569 4.469338,-7.24377 6.328464,-11.75651 1.859127,-4.51274 2.772949,-9.74975 5.272986,-17.71157 2.500037,-7.96182 6.585552,-18.64617 11.855068,-27.57258 5.26951,-8.92642 11.72264,-16.09352 18.17564,-23.26049 z"
       id="path16805"
       inkscape:path-effect="#path-effect16811"
       inkscape:original-d="m 122.87586,144.46282 c 0,0 -9.69591,20.23728 -14.54329,30.35496 -0.71724,10.21611 -1.43429,20.43225 -2.15115,30.64846 -4.79564,8.93196 -9.590515,17.86262 -14.385723,26.79399 -4.423738,0.73538 -8.846859,1.47028 -13.270059,2.20505 0.526223,-3.12276 1.05264,-6.24564 1.579308,-9.36901 2.804018,-3.78799 5.608094,-7.57607 8.412544,-11.36465 0.914132,-5.23684 1.827952,-10.47385 2.741561,-15.71157 4.086477,-10.68585 8.171989,-21.3702 12.257799,-32.05633 6.45291,-7.1668 19.35901,-21.5009 19.35901,-21.5009 z"
       sodipodi:nodetypes="cccccccccc"
       inkscape:transform-center-x="20.950948"
       inkscape:transform-center-y="42.50441" /><path
       id="path16807"
       style="fill:#a6d896;fill-opacity:0.286325;stroke-width:0.121338;stroke-linecap:round"
       d="m 117.51199,155.892 c -0.31508,0.70035 -0.62569,1.40027 -0.93264,2.10081 a 0.64862806,1.6998527 19.427824 0 1 0.20153,-0.88623 0.64862806,1.6998527 19.427824 0 1 0.73111,-1.21458 z m -2.90154,2.75835 a 0.36671758,0.96105295 19.427824 0 1 0.0737,0.006 0.36671758,0.96105295 19.427824 0 1 0.026,1.02826 0.36671758,0.96105295 19.427824 0 1 -0.66544,0.7845 0.36671758,0.96105295 19.427824 0 1 -0.026,-1.02825 0.36671758,0.96105295 19.427824 0 1 0.59176,-0.79088 z m -2.67493,6.9611 a 0.32401529,0.84914351 19.427824 0 1 0.0653,0.006 0.32401529,0.84914351 19.427824 0 1 0.0232,0.90893 0.32401529,0.84914351 19.427824 0 1 -0.58811,0.69302 0.32401529,0.84914351 19.427824 0 1 -0.0232,-0.90892 0.32401529,0.84914351 19.427824 0 1 0.52293,-0.69862 z m -5.93651,2.80981 a 0.40932161,1.0727048 19.427824 0 1 0.0821,0.007 0.40932161,1.0727048 19.427824 0 1 0.0293,1.14749 0.40932161,1.0727048 19.427824 0 1 -0.17527,0.39427 0.8020286,2.1018679 19.427824 0 1 -0.0847,2.1498 0.8020286,2.1018679 19.427824 0 1 -1.45567,1.71542 0.8020286,2.1018679 19.427824 0 1 -0.0573,-2.24915 0.8020286,2.1018679 19.427824 0 1 0.86354,-1.48036 0.40932161,1.0727048 19.427824 0 1 0.13719,-0.80202 0.40932161,1.0727048 19.427824 0 1 0.66071,-0.88258 z m 5.96853,1.33156 c -0.32588,0.96808 -0.63753,1.93642 -0.93034,2.90525 a 0.59944952,1.5709711 19.427824 0 1 0.009,-1.63497 0.59944952,1.5709711 19.427824 0 1 0.92172,-1.27028 z m -3.96871,2.40499 a 0.40695828,1.0665113 19.427824 0 1 0.0816,0.007 0.40695828,1.0665113 19.427824 0 1 0.0289,1.14127 0.40695828,1.0665113 19.427824 0 1 -0.73839,0.87059 0.40695828,1.0665113 19.427824 0 1 -0.0289,-1.14129 0.40695828,1.0665113 19.427824 0 1 0.65674,-0.87779 z m -6.8766,7.05945 a 0.34846282,0.91321284 19.427824 0 1 0.0699,0.006 0.34846282,0.91321284 19.427824 0 1 0.0249,0.97716 0.34846282,0.91321284 19.427824 0 1 -0.63279,0.74545 0.34846282,0.91321284 19.427824 0 1 -0.0249,-0.97716 0.34846282,0.91321284 19.427824 0 1 0.56287,-0.75135 z m 3.68968,0.88669 a 0.5068686,1.3283453 19.427824 0 1 0.10178,0.009 0.5068686,1.3283453 19.427824 0 1 0.0362,1.42145 0.5068686,1.3283453 19.427824 0 1 -0.92027,1.0839 0.5068686,1.3283453 19.427824 0 1 -0.0361,-1.42096 0.5068686,1.3283453 19.427824 0 1 0.81842,-1.09321 z m 0.55635,2.51381 a 0.19628517,0.51440251 19.427824 0 1 0.0391,0.003 0.19628517,0.51440251 19.427824 0 1 0.0142,0.55055 0.19628517,0.51440251 19.427824 0 1 -0.35644,0.41972 0.19628517,0.51440251 19.427824 0 1 -0.014,-0.55005 0.19628517,0.51440251 19.427824 0 1 0.31715,-0.42357 z m 2.47607,-0.24982 a 0.72724289,1.9058778 19.427824 0 1 0.14624,0.0123 0.72724289,1.9058778 19.427824 0 1 0.0519,2.03923 0.72724289,1.9058778 19.427824 0 1 -1.31996,1.55528 0.72724289,1.9058778 19.427824 0 1 -0.0519,-2.03923 0.72724289,1.9058778 19.427824 0 1 1.1737,-1.56765 z m -6.18521,1.43433 a 0.27374241,0.71739388 19.427824 0 1 0.055,0.005 0.27374241,0.71739388 19.427824 0 1 0.0196,0.76776 0.27374241,0.71739388 19.427824 0 1 -0.49708,0.58532 0.27374241,0.71739388 19.427824 0 1 -0.0195,-0.76726 0.27374241,0.71739388 19.427824 0 1 0.44191,-0.59036 z m 0.25093,3.42136 a 0.28907281,0.75757009 19.427824 0 1 0.0582,0.005 0.28907281,0.75757009 19.427824 0 1 0.0205,0.8105 0.28907281,0.75757009 19.427824 0 1 -0.52488,0.6184 0.28907281,0.75757009 19.427824 0 1 -0.0205,-0.81051 0.28907281,0.75757009 19.427824 0 1 0.46658,-0.62346 z m -6.184452,4.50016 a 0.17573982,0.46055952 19.427824 0 1 0.03551,0.003 0.17573982,0.46055952 19.427824 0 1 0.01262,0.49274 0.17573982,0.46055952 19.427824 0 1 -0.319332,0.37579 0.17573982,0.46055952 19.427824 0 1 -0.01262,-0.49273 0.17573982,0.46055952 19.427824 0 1 0.283851,-0.37866 z m 7.208192,0.40894 a 0.12743583,0.33396977 19.427824 0 1 0.0259,0.002 0.12743583,0.33396977 19.427824 0 1 0.009,0.35736 0.12743583,0.33396977 19.427824 0 1 -0.23123,0.27271 0.12743583,0.33396977 19.427824 0 1 -0.009,-0.35735 0.12743583,0.33396977 19.427824 0 1 0.20527,-0.27497 z m -3.942878,0.75273 a 0.68592989,1.7976092 19.427824 0 1 0.137246,0.0117 0.68592989,1.7976092 19.427824 0 1 0.04916,1.92357 0.68592989,1.7976092 19.427824 0 1 -1.244683,1.46725 0.68592989,1.7976092 19.427824 0 1 -0.04916,-1.92357 0.68592989,1.7976092 19.427824 0 1 1.107438,-1.47893 z m 2.624768,3.17325 a 0.64630026,1.6937524 19.427824 0 1 0.12985,0.0112 0.64630026,1.6937524 19.427824 0 1 0.046,1.81215 0.64630026,1.6937524 19.427824 0 1 -1.17261,1.38236 0.64630026,1.6937524 19.427824 0 1 -0.0465,-1.81207 0.64630026,1.6937524 19.427824 0 1 1.04326,-1.3937 z m -4.153672,2.70297 a 0.84160405,2.2055829 19.427824 0 1 0.168575,0.0147 0.84160405,2.2055829 19.427824 0 1 0.06032,2.36006 0.84160405,2.2055829 19.427824 0 1 -1.527242,1.80023 0.84160405,2.2055829 19.427824 0 1 -0.06032,-2.36006 0.84160405,2.2055829 19.427824 0 1 1.358675,-1.81489 z m 5.673882,0.48301 a 0.85171163,2.2320716 19.427824 0 1 0.17119,0.0147 0.85171163,2.2320716 19.427824 0 1 0.0605,2.38826 0.85171163,2.2320716 19.427824 0 1 -1.54541,1.82134 0.85171163,2.2320716 19.427824 0 1 -0.061,-2.38819 0.85171163,2.2320716 19.427824 0 1 1.37474,-1.8362 z m 1.86782,0.60005 a 0.81540364,2.1369197 19.427824 0 1 0.16382,0.0143 0.81540364,2.1369197 19.427824 0 1 0.18794,0.17012 c -0.25969,1.1557 -0.5386,2.30416 -0.84321,3.44396 a 0.81540364,2.1369197 19.427824 0 1 -0.76643,0.41632 0.81540364,2.1369197 19.427824 0 1 -0.0583,-2.28614 0.81540364,2.1369197 19.427824 0 1 1.31615,-1.75863 z m -13.061663,6.86483 a 0.61020106,1.5991476 19.427824 0 1 0.122375,0.0102 0.61020106,1.5991476 19.427824 0 1 0.04343,1.71111 0.61020106,1.5991476 19.427824 0 1 -1.107153,1.30528 0.61020106,1.5991476 19.427824 0 1 -0.04343,-1.71112 0.61020106,1.5991476 19.427824 0 1 0.98476,-1.31559 z m 7.814068,2.90827 a 0.15758719,0.41298711 19.427824 0 1 0.0317,0.002 0.15758719,0.41298711 19.427824 0 1 0.01164,0.44218 0.15758719,0.41298711 19.427824 0 1 -0.286176,0.33667 0.15758719,0.41298711 19.427824 0 1 -0.01146,-0.44168 0.15758719,0.41298711 19.427824 0 1 0.25434,-0.33958 z m -11.852144,3.4462 a 0.67910087,1.7797126 19.427824 0 1 -0.21777,1.34159 0.67910087,1.7797126 19.427824 0 1 -1.232368,1.45228 0.67910087,1.7797126 19.427824 0 1 -0.03352,-0.0173 c 0.505986,-0.89189 1.00514,-1.81554 1.483671,-2.77659 z m 2.179438,2.38831 a 0.19128008,0.50128573 19.427824 0 1 0.03868,0.003 0.19128008,0.50128573 19.427824 0 1 0.01359,0.53652 0.19128008,0.50128573 19.427824 0 1 -0.347143,0.40887 0.19128008,0.50128573 19.427824 0 1 -0.01351,-0.53601 0.19128008,0.50128573 19.427824 0 1 0.308361,-0.41278 z m -5.144006,4.01628 a 0.6773268,1.7750633 19.427824 0 1 0.136212,0.0117 0.6773268,1.7750633 19.427824 0 1 0.04807,1.89967 0.6773268,1.7750633 19.427824 0 1 -1.229265,1.44869 0.6773268,1.7750633 19.427824 0 1 -0.04808,-1.8997 0.6773268,1.7750633 19.427824 0 1 1.093042,-1.4605 z m 1.721156,1.18234 a 0.21626706,0.56676883 19.427824 0 1 0.04343,0.004 0.21626706,0.56676883 19.427824 0 1 0.01552,0.60629 0.21626706,0.56676883 19.427824 0 1 -0.392624,0.46297 0.21626706,0.56676883 19.427824 0 1 -0.01559,-0.60679 0.21626706,0.56676883 19.427824 0 1 0.349242,-0.46619 z m 0.674117,4.76194 a 0.43511403,1.1402987 19.427824 0 1 0.08743,0.007 0.43511403,1.1402987 19.427824 0 1 0.03119,1.2204 0.43511403,1.1402987 19.427824 0 1 -0.789792,0.93031 0.43511403,1.1402987 19.427824 0 1 -0.03111,-1.21989 0.43511403,1.1402987 19.427824 0 1 0.70229,-0.93819 z"
       inkscape:transform-center-x="21.701214"
       inkscape:transform-center-y="45.489739" /><path
       style="fill:url(#linearGradient15759);fill-opacity:1;stroke-width:0.264583;stroke-linecap:round"
       d="m 139.58099,145.73867 c -6.30817,9.27837 -12.61677,18.55736 -16.88998,28.19302 -4.27321,9.63567 -6.51188,19.62927 -10.67071,28.68271 -4.15882,9.05344 -10.23687,17.16545 -15.518122,21.25398 -5.281254,4.08853 -9.764549,4.15292 -11.512206,2.68077 -1.747657,-1.47216 -0.759574,-4.48101 1.40435,-7.6484 2.163924,-3.16739 5.503592,-6.49289 8.017473,-10.67638 2.513881,-4.18349 4.201563,-9.22463 7.865575,-16.72235 3.66402,-7.49772 9.30329,-17.44987 15.84998,-25.48662 6.5467,-8.03675 14.00024,-14.1568 21.45364,-20.27673 z"
       id="path15751"
       inkscape:path-effect="#path-effect15757"
       inkscape:original-d="m 139.58099,145.73867 c 0,0 -12.61682,18.55732 -18.92452,27.83511 -2.23886,9.99354 -4.47754,19.98714 -6.71603,29.98084 -6.079,8.11319 -12.15705,16.2252 -18.235535,24.33788 -4.483977,0.0647 -8.967273,0.12902 -13.450627,0.1932 0.987876,-3.00876 1.975961,-6.01761 2.964369,-9.02691 3.3396,-3.32543 6.679269,-6.65093 10.019384,-9.97688 1.687962,-5.04092 3.375642,-10.08206 5.063219,-15.12393 5.64045,-9.9535 11.27972,-19.90565 16.91955,-29.85952 7.45328,-6.11978 22.36019,-18.35979 22.36019,-18.35979 z"
       sodipodi:nodetypes="cccccccccc"
       inkscape:transform-center-x="26.872594"
       inkscape:transform-center-y="39.171723" /><path
       id="rect30174"
       style="opacity:1;fill:url(#linearGradient31642);fill-opacity:1;stroke-width:0.264583;stroke-linecap:round"
       d="m 58.593367,220.98442 8.995833,71.81009 c 12.854552,3.32335 35.43739,3.18397 47.32012,0 l 8.99583,-71.81009 c -22.2092,4.18097 -43.95136,3.90995 -65.311783,0 z"
       sodipodi:nodetypes="ccccc" /><path
       style="fill:url(#linearGradient16729);fill-opacity:1;stroke-width:0.264583;stroke-linecap:round"
       d="m 59.792077,127.12606 c 2.418428,9.90299 4.836998,19.80657 6.506546,30.21429 1.669549,10.40773 2.590356,21.32074 4.952907,31.47583 2.362551,10.15509 6.166275,19.55079 10.227635,24.85296 4.06136,5.30217 8.379402,6.5099 10.445185,5.53313 2.065783,-0.97677 1.879246,-4.13821 0.596402,-7.75335 -1.282843,-3.61514 -3.66201,-7.68354 -5.437203,-12.55695 -1.775192,-4.87341 -2.946103,-10.55134 -4.742579,-17.95981 -1.796475,-7.40847 -4.218333,-16.54665 -8.080767,-25.80288 -3.862434,-9.25622 -9.165304,-18.62976 -14.468126,-28.00322 z"
       id="path16723"
       inkscape:path-effect="#path-effect16727"
       inkscape:original-d="m 59.792077,127.12606 c 0,0 4.837186,19.80652 7.255285,29.70898 0.92105,10.91302 1.841858,21.82603 2.76243,32.73913 3.804335,9.39708 7.608062,18.79278 11.412031,28.18923 4.318619,1.20821 8.636682,2.41586 12.954837,3.62338 -0.186361,-3.16129 -0.372896,-6.32273 -0.559632,-9.48468 -2.37912,-4.06832 -4.758288,-8.13672 -7.137773,-12.20567 -1.170786,-5.67789 -2.341696,-11.35582 -3.512855,-17.03438 -2.421723,-9.13841 -4.843581,-18.27659 -7.265858,-27.41562 -5.302687,-9.37342 -15.908465,-28.12037 -15.908465,-28.12037 z"
       sodipodi:nodetypes="cccccccccc" /><path
       id="path15753"
       style="fill:#a6d896;fill-opacity:0.286325;stroke-width:0.121338;stroke-linecap:round"
       d="m 132.56625,156.23584 c -0.41639,0.64528 -0.8283,1.2908 -1.23669,1.93748 a 0.64862806,1.6998527 28.039373 0 1 0.33196,-0.84606 0.64862806,1.6998527 28.039373 0 1 0.90473,-1.09142 z m -3.28185,2.2928 a 0.36671758,0.96105295 28.039373 0 1 0.0719,0.0173 0.36671758,0.96105295 28.039373 0 1 -0.12828,1.02055 0.36671758,0.96105295 28.039373 0 1 -0.7754,0.67602 0.36671758,0.96105295 28.039373 0 1 0.12827,-1.02055 0.36671758,0.96105295 28.039373 0 1 0.70351,-0.69335 z m -3.68709,6.48209 a 0.32401529,0.84914351 28.039373 0 1 0.0637,0.0153 0.32401529,0.84914351 28.039373 0 1 -0.11318,0.90215 0.32401529,0.84914351 28.039373 0 1 -0.68525,0.59715 0.32401529,0.84914351 28.039373 0 1 0.11317,-0.90215 0.32401529,0.84914351 28.039373 0 1 0.62164,-0.61244 z m -6.29031,1.88923 a 0.40932161,1.0727048 28.039373 0 1 0.0801,0.0193 0.40932161,1.0727048 28.039373 0 1 -0.14284,1.13894 0.40932161,1.0727048 28.039373 0 1 -0.23233,0.36358 0.8020286,2.1018679 28.039373 0 1 -0.40564,2.11289 0.8020286,2.1018679 28.039373 0 1 -1.69612,1.47811 0.8020286,2.1018679 28.039373 0 1 0.28016,-2.23237 0.8020286,2.1018679 28.039373 0 1 1.07546,-1.33437 0.40932161,1.0727048 28.039373 0 1 0.25573,-0.77243 0.40932161,1.0727048 28.039373 0 1 0.78542,-0.7737 z m 5.70186,2.21024 c -0.46716,0.90837 -0.92029,1.81913 -1.35487,2.7332 a 0.59944952,1.5709711 28.039373 0 1 0.25334,-1.61525 0.59944952,1.5709711 28.039373 0 1 1.10153,-1.11795 z m -4.28408,1.78363 a 0.40695828,1.0665113 28.039373 0 1 0.0796,0.0194 0.40695828,1.0665113 28.039373 0 1 -0.14236,1.13273 0.40695828,1.0665113 28.039373 0 1 -0.86042,0.75021 0.40695828,1.0665113 28.039373 0 1 0.14235,-1.13274 0.40695828,1.0665113 28.039373 0 1 0.78077,-0.76956 z m -7.85612,5.95019 a 0.34846282,0.91321284 28.039373 0 1 0.0682,0.0163 0.34846282,0.91321284 28.039373 0 1 -0.12173,0.96987 0.34846282,0.91321284 28.039373 0 1 -0.73728,0.64229 0.34846282,0.91321284 28.039373 0 1 0.12172,-0.96987 0.34846282,0.91321284 28.039373 0 1 0.66902,-0.6586 z m 3.51532,1.42917 a 0.5068686,1.3283453 28.039373 0 1 0.0993,0.024 0.5068686,1.3283453 28.039373 0 1 -0.17705,1.41085 0.5068686,1.3283453 28.039373 0 1 -1.07219,0.93388 0.5068686,1.3283453 28.039373 0 1 0.17706,-1.41035 0.5068686,1.3283453 28.039373 0 1 0.97288,-0.95834 z m 0.17367,2.56878 a 0.19628517,0.51440251 28.039373 0 1 0.0382,0.009 0.19628517,0.51440251 28.039373 0 1 -0.0684,0.54647 0.19628517,0.51440251 28.039373 0 1 -0.41527,0.36161 0.19628517,0.51440251 28.039373 0 1 0.0685,-0.54595 0.19628517,0.51440251 28.039373 0 1 0.377,-0.3713 z m 2.48557,0.12375 a 0.72724289,1.9058778 28.039373 0 1 0.14274,0.0341 0.72724289,1.9058778 28.039373 0 1 -0.254,2.02402 0.72724289,1.9058778 28.039373 0 1 -1.53796,1.3401 0.72724289,1.9058778 28.039373 0 1 0.25402,-2.02401 0.72724289,1.9058778 28.039373 0 1 1.3952,-1.37423 z m -6.33026,0.49202 a 0.27374241,0.71739388 28.039373 0 1 0.0537,0.0128 0.27374241,0.71739388 28.039373 0 1 -0.0956,0.76204 0.27374241,0.71739388 28.039373 0 1 -0.57912,0.50429 0.27374241,0.71739388 28.039373 0 1 0.0956,-0.76153 0.27374241,0.71739388 28.039373 0 1 0.52532,-0.51754 z m -0.26419,3.42036 a 0.28907281,0.75757009 28.039373 0 1 0.0568,0.0137 0.28907281,0.75757009 28.039373 0 1 -0.1011,0.80443 0.28907281,0.75757009 28.039373 0 1 -0.61156,0.53283 0.28907281,0.75757009 28.039373 0 1 0.1011,-0.80444 0.28907281,0.75757009 28.039373 0 1 0.55468,-0.54657 z m -6.78856,3.5234 a 0.17573982,0.46055952 28.039373 0 1 0.0347,0.008 0.17573982,0.46055952 28.039373 0 1 -0.0613,0.48908 0.17573982,0.46055952 28.039373 0 1 -0.372,0.32374 0.17573982,0.46055952 28.039373 0 1 0.0613,-0.48907 0.17573982,0.46055952 28.039373 0 1 0.33735,-0.33189 z m 7.0657,1.48364 a 0.12743583,0.33396977 28.039373 0 1 0.0253,0.006 0.12743583,0.33396977 28.039373 0 1 -0.0447,0.35466 0.12743583,0.33396977 28.039373 0 1 -0.26946,0.23502 0.12743583,0.33396977 28.039373 0 1 0.0447,-0.35466 0.12743583,0.33396977 28.039373 0 1 0.24412,-0.24113 z m -4.01114,0.15386 a 0.68592989,1.7976092 28.039373 0 1 0.13395,0.0321 0.68592989,1.7976092 28.039373 0 1 -0.23942,1.90924 0.68592989,1.7976092 28.039373 0 1 -1.45035,1.26434 0.68592989,1.7976092 28.039373 0 1 0.23942,-1.90924 0.68592989,1.7976092 28.039373 0 1 1.3164,-1.29644 z m 2.12003,3.53049 a 0.64630026,1.6937524 28.039373 0 1 0.12671,0.0305 0.64630026,1.6937524 28.039373 0 1 -0.22585,1.79861 0.64630026,1.6937524 28.039373 0 1 -1.36637,1.1912 0.64630026,1.6937524 28.039373 0 1 0.22533,-1.79861 0.64630026,1.6937524 28.039373 0 1 1.24018,-1.22178 z m -4.51157,2.05055 a 0.84160405,2.2055829 28.039373 0 1 0.16447,0.0398 0.84160405,2.2055829 28.039373 0 1 -0.29374,2.34249 0.84160405,2.2055829 28.039373 0 1 -1.77958,1.55125 0.84160405,2.2055829 28.039373 0 1 0.29374,-2.34249 0.84160405,2.2055829 28.039373 0 1 1.61511,-1.59099 z m 5.53759,1.32714 a 0.85171163,2.2320716 28.039373 0 1 0.16706,0.0402 0.85171163,2.2320716 28.039373 0 1 -0.29778,2.3704 0.85171163,2.2320716 28.039373 0 1 -1.80071,1.5694 0.85171163,2.2320716 28.039373 0 1 0.29725,-2.3704 0.85171163,2.2320716 28.039373 0 1 1.63418,-1.60966 z m 1.75692,0.87297 a 0.81540364,2.1369197 28.039373 0 1 0.15982,0.0387 0.81540364,2.1369197 28.039373 0 1 0.16035,0.19634 c -0.42981,1.10379 -0.87754,2.19754 -1.34938,3.27888 a 0.81540364,2.1369197 28.039373 0 1 -0.82013,0.29686 0.81540364,2.1369197 28.039373 0 1 0.2847,-2.26909 0.81540364,2.1369197 28.039373 0 1 1.56464,-1.54173 z m -13.942315,4.83165 a 0.61020106,1.5991476 28.039373 0 1 0.119469,0.0284 0.61020106,1.5991476 28.039373 0 1 -0.213273,1.69832 0.61020106,1.5991476 28.039373 0 1 -1.290118,1.12479 0.61020106,1.5991476 28.039373 0 1 0.213272,-1.69833 0.61020106,1.5991476 28.039373 0 1 1.170648,-1.15331 z m 7.290505,4.04552 a 0.15758719,0.41298711 28.039373 0 1 0.031,0.007 0.15758719,0.41298711 28.039373 0 1 -0.0547,0.43894 0.15758719,0.41298711 28.039373 0 1 -0.33336,0.29002 0.15758719,0.41298711 28.039373 0 1 0.0548,-0.43841 0.15758719,0.41298711 28.039373 0 1 0.30232,-0.29767 z m -12.234541,1.63267 a 0.67910087,1.7797126 28.039373 0 1 -0.416198,1.29386 0.67910087,1.7797126 28.039373 0 1 -1.435931,1.25138 0.67910087,1.7797126 28.039373 0 1 -0.03056,-0.0221 c 0.633828,-0.80607 1.265656,-1.64456 1.882696,-2.52313 z m 1.797254,2.68773 a 0.19128008,0.50128573 28.039373 0 1 0.03776,0.009 0.19128008,0.50128573 28.039373 0 1 -0.0669,0.53251 0.19128008,0.50128573 28.039373 0 1 -0.404451,0.35228 0.19128008,0.50128573 28.039373 0 1 0.0669,-0.53199 0.19128008,0.50128573 28.039373 0 1 0.366693,-0.36196 z m -5.687389,3.20076 a 0.6773268,1.7750633 28.039373 0 1 0.132919,0.032 0.6773268,1.7750633 28.039373 0 1 -0.236918,1.88546 0.6773268,1.7750633 28.039373 0 1 -1.432325,1.24829 0.6773268,1.7750633 28.039373 0 1 0.236917,-1.88548 0.6773268,1.7750633 28.039373 0 1 1.299407,-1.28037 z m 1.524714,1.42673 a 0.21626706,0.56676883 28.039373 0 1 0.0424,0.0101 0.21626706,0.56676883 28.039373 0 1 -0.07544,0.60178 0.21626706,0.56676883 28.039373 0 1 -0.45752,0.39896 0.21626706,0.56676883 28.039373 0 1 0.07544,-0.60228 0.21626706,0.56676883 28.039373 0 1 0.415109,-0.40864 z m -0.04651,4.80919 a 0.43511403,1.1402987 28.039373 0 1 0.08534,0.0204 0.43511403,1.1402987 28.039373 0 1 -0.151902,1.21131 0.43511403,1.1402987 28.039373 0 1 -0.920187,0.80156 0.43511403,1.1402987 28.039373 0 1 0.1519,-1.21079 0.43511403,1.1402987 28.039373 0 1 0.834852,-0.82246 z"
       inkscape:transform-center-x="27.8701"
       inkscape:transform-center-y="41.961401" /><path
       style="fill:url(#linearGradient12212);fill-opacity:1;stroke-width:0.264583;stroke-linecap:round"
       d="m 41.460928,145.74168 c 6.340026,9.25663 12.680475,18.51388 16.986783,28.1348 4.306307,9.62092 6.57932,19.60676 10.769236,28.64585 4.189916,9.03909 10.295822,17.13017 15.591097,21.20052 5.295275,4.07034 9.778764,4.11933 11.521351,2.64117 1.742587,-1.47815 0.744165,-4.48359 -1.430633,-7.64352 -2.174797,-3.15993 -5.525876,-6.47393 -8.501913,-10.72183 -2.976036,-4.2479 -5.576603,-9.4293 -9.266218,-16.91404 -3.689614,-7.48475 -8.467852,-17.27199 -14.594319,-25.21314 -6.126467,-7.94115 -13.600993,-14.03554 -21.075384,-20.12981 z"
       id="path12206"
       inkscape:path-effect="#path-effect12210"
       inkscape:original-d="m 41.460928,145.74168 c 0,0 12.68053,18.51384 19.020079,27.76989 2.273205,9.98579 4.546217,19.97163 6.819051,29.95758 6.106847,8.09224 12.212753,16.18332 18.319084,24.27505 4.484174,0.0493 8.967664,0.0982 13.451212,0.14696 -0.998213,-3.00534 -1.996634,-6.01078 -2.99538,-9.01666 -3.351011,-3.31393 -6.702091,-6.62793 -10.053619,-9.94238 -2.600439,-5.1814 -5.201006,-10.3628 -7.801979,-15.54475 C 73.441126,183.59983 68.662889,173.81259 63.8841,164.0245 56.409818,157.93037 41.460928,145.74168 41.460928,145.74168 Z"
       sodipodi:nodetypes="cccccccccc" /><path
       style="fill:url(#linearGradient16803);fill-opacity:1;stroke-width:0.264583;stroke-linecap:round"
       d="m 104.11598,127.39369 c -1.34141,10.10538 -2.68289,20.21136 -3.22557,30.73817 -0.54267,10.5268 -0.28669,21.47559 -1.545484,31.82561 -1.258792,10.35002 -4.031948,20.09975 -7.500674,25.80726 -3.468727,5.7075 -7.632172,7.37177 -9.79087,6.6224 -2.158699,-0.74937 -2.312607,-3.91257 -1.425248,-7.64452 0.88736,-3.73196 2.816054,-8.03225 4.057849,-13.06806 1.241795,-5.03581 1.796437,-10.80662 2.787263,-18.36513 0.990827,-7.55851 2.417743,-16.90386 5.264241,-26.52122 2.846497,-9.61735 7.112515,-19.50598 11.378493,-29.39451 z"
       id="path16795"
       inkscape:path-effect="#path-effect16801"
       inkscape:original-d="m 104.11598,127.39369 c 0,0 -2.68309,20.21133 -4.02422,30.31614 0.25574,10.94884 0.51172,21.89763 0.76794,32.84649 -2.773614,9.75116 -5.546772,19.50089 -8.32009,29.25138 -4.163969,1.66482 -8.327444,3.32902 -12.491026,4.9931 -0.154067,-3.16303 -0.307978,-6.32623 -0.461743,-9.48995 1.928655,-4.3002 3.85735,-8.60049 5.7863,-12.90136 0.554523,-5.77076 1.109164,-11.54157 1.663986,-17.31304 1.426759,-9.34557 2.853676,-18.69092 4.280919,-28.03716 4.265848,-9.88848 12.797934,-29.6656 12.797934,-29.6656 z"
       sodipodi:nodetypes="cccccccccc"
       inkscape:transform-center-x="10.569772"
       inkscape:transform-center-y="44.8788" /><path
       id="use12214"
       style="fill:#a6d896;fill-opacity:0.286325;stroke-width:0.121338;stroke-linecap:round"
       d="m 48.511708,156.21467 c 0.418601,0.64384 0.832734,1.28795 1.243338,1.93322 a 1.6998527,0.64862806 61.76368 0 0 -0.334866,-0.84491 1.6998527,0.64862806 61.76368 0 0 -0.908472,-1.08831 z m 3.289721,2.28152 a 0.96105295,0.36671758 61.76368 0 0 -0.07183,0.0176 0.96105295,0.36671758 61.76368 0 0 0.131775,1.02009 0.96105295,0.36671758 61.76368 0 0 0.777731,0.67335 0.96105295,0.36671758 61.76368 0 0 -0.131776,-1.02009 0.96105295,0.36671758 61.76368 0 0 -0.705902,-0.69092 z m 3.709338,6.46938 a 0.84914351,0.32401529 61.76368 0 0 -0.06357,0.0155 0.84914351,0.32401529 61.76368 0 0 0.116273,0.90176 0.84914351,0.32401529 61.76368 0 0 0.687295,0.59479 0.84914351,0.32401529 61.76368 0 0 -0.116268,-0.90174 0.84914351,0.32401529 61.76368 0 0 -0.623735,-0.6103 z m 6.296772,1.86758 a 1.0727048,0.40932161 61.76368 0 0 -0.0801,0.0196 1.0727048,0.40932161 61.76368 0 0 0.146762,1.13844 1.0727048,0.40932161 61.76368 0 0 0.233579,0.36277 2.1018679,0.8020286 61.76368 0 0 0.412892,2.1115 2.1018679,0.8020286 61.76368 0 0 1.701191,1.47226 2.1018679,0.8020286 61.76368 0 0 -0.287838,-2.23139 2.1018679,0.8020286 61.76368 0 0 -1.080037,-1.33067 1.0727048,0.40932161 61.76368 0 0 -0.258386,-0.77153 1.0727048,0.40932161 61.76368 0 0 -0.788063,-0.77101 z m -5.694228,2.22984 c 0.470269,0.90675 0.926538,1.81594 1.36426,2.72852 a 1.5709711,0.59944952 61.76368 0 0 -0.258901,-1.61438 1.5709711,0.59944952 61.76368 0 0 -1.105359,-1.11414 z m 4.290179,1.76888 a 1.0665113,0.40695828 61.76368 0 0 -0.07958,0.0196 1.0665113,0.40695828 61.76368 0 0 0.146245,1.13223 1.0665113,0.40695828 61.76368 0 0 0.862994,0.74724 1.0665113,0.40695828 61.76368 0 0 -0.146245,-1.13223 1.0665113,0.40695828 61.76368 0 0 -0.783413,-0.76688 z m 7.876525,5.92316 a 0.91321284,0.34846282 61.76368 0 0 -0.06822,0.0165 0.91321284,0.34846282 61.76368 0 0 0.12506,0.96945 0.91321284,0.34846282 61.76368 0 0 0.739487,0.63975 0.91321284,0.34846282 61.76368 0 0 -0.125055,-0.96944 0.91321284,0.34846282 61.76368 0 0 -0.671275,-0.65629 z m -3.510385,1.44125 a 1.3283453,0.5068686 61.76368 0 0 -0.09922,0.0243 1.3283453,0.5068686 61.76368 0 0 0.181899,1.41025 1.3283453,0.5068686 61.76368 0 0 1.07539,0.93018 1.3283453,0.5068686 61.76368 0 0 -0.181902,-1.40974 1.3283453,0.5068686 61.76368 0 0 -0.97617,-0.95498 z m -0.164847,2.56935 a 0.51440251,0.19628517 61.76368 0 0 -0.03824,0.009 0.51440251,0.19628517 61.76368 0 0 0.07028,0.54623 0.51440251,0.19628517 61.76368 0 0 0.416512,0.36018 0.51440251,0.19628517 61.76368 0 0 -0.07028,-0.5457 0.51440251,0.19628517 61.76368 0 0 -0.378273,-0.37001 z m -2.485117,0.1323 a 1.9058778,0.72724289 61.76368 0 0 -0.142629,0.0346 1.9058778,0.72724289 61.76368 0 0 0.260964,2.02313 1.9058778,0.72724289 61.76368 0 0 1.542543,1.3348 1.9058778,0.72724289 61.76368 0 0 -0.260964,-2.02313 1.9058778,0.72724289 61.76368 0 0 -1.399914,-1.36942 z m 6.331911,0.47025 a 0.71739388,0.27374241 61.76368 0 0 -0.05374,0.0129 0.71739388,0.27374241 61.76368 0 0 0.09818,0.76171 0.71739388,0.27374241 61.76368 0 0 0.58084,0.50229 0.71739388,0.27374241 61.76368 0 0 -0.09818,-0.76119 0.71739388,0.27374241 61.76368 0 0 -0.527102,-0.51573 z m 0.275954,3.41943 a 0.75757009,0.28907281 61.76368 0 0 -0.05684,0.014 0.75757009,0.28907281 61.76368 0 0 0.103867,0.80408 0.75757009,0.28907281 61.76368 0 0 0.6134,0.53072 0.75757009,0.28907281 61.76368 0 0 -0.103872,-0.80409 0.75757009,0.28907281 61.76368 0 0 -0.556552,-0.54467 z m 6.800619,3.50005 a 0.46055952,0.17573982 61.76368 0 0 -0.03462,0.008 0.46055952,0.17573982 61.76368 0 0 0.06304,0.48886 0.46055952,0.17573982 61.76368 0 0 0.373104,0.32246 0.46055952,0.17573982 61.76368 0 0 -0.06304,-0.48885 0.46055952,0.17573982 61.76368 0 0 -0.33848,-0.33073 z m -7.060555,1.50791 a 0.33396977,0.12743583 61.76368 0 0 -0.02532,0.006 0.33396977,0.12743583 61.76368 0 0 0.04599,0.35449 0.33396977,0.12743583 61.76368 0 0 0.270271,0.2341 0.33396977,0.12743583 61.76368 0 0 -0.04599,-0.3545 0.33396977,0.12743583 61.76368 0 0 -0.244948,-0.2403 z m 4.011645,0.14005 a 1.7976092,0.68592989 61.76368 0 0 -0.133842,0.0325 1.7976092,0.68592989 61.76368 0 0 0.245978,1.90841 1.7976092,0.68592989 61.76368 0 0 1.45469,1.25935 1.7976092,0.68592989 61.76368 0 0 -0.245979,-1.90841 1.7976092,0.68592989 61.76368 0 0 -1.320847,-1.2919 z m -2.107881,3.53777 a 1.6937524,0.64630026 61.76368 0 0 -0.126611,0.031 1.6937524,0.64630026 61.76368 0 0 0.23203,1.79783 1.6937524,0.64630026 61.76368 0 0 1.37046,1.18649 1.6937524,0.64630026 61.76368 0 0 -0.231512,-1.79783 1.6937524,0.64630026 61.76368 0 0 -1.244367,-1.21749 z m 4.518585,2.03501 a 2.2055829,0.84160405 61.76368 0 0 -0.164328,0.0403 2.2055829,0.84160405 61.76368 0 0 0.301788,2.34146 2.2055829,0.84160405 61.76368 0 0 1.784906,1.54513 2.2055829,0.84160405 61.76368 0 0 -0.301793,-2.34147 2.2055829,0.84160405 61.76368 0 0 -1.620573,-1.58543 z m -5.532996,1.34617 a 2.2320716,0.85171163 61.76368 0 0 -0.166913,0.0408 2.2320716,0.85171163 61.76368 0 0 0.305922,2.36936 2.2320716,0.85171163 61.76368 0 0 1.806094,1.56322 2.2320716,0.85171163 61.76368 0 0 -0.305408,-2.36937 2.2320716,0.85171163 61.76368 0 0 -1.639695,-1.60404 z m -1.753898,0.87902 a 2.1369197,0.81540364 61.76368 0 0 -0.159678,0.0393 2.1369197,0.81540364 61.76368 0 0 -0.159681,0.19688 c 0.433595,1.10232 0.88509,2.19452 1.36064,3.27422 a 2.1369197,0.81540364 61.76368 0 0 0.82114,0.29404 2.1369197,0.81540364 61.76368 0 0 -0.292491,-2.26808 2.1369197,0.81540364 61.76368 0 0 -1.56993,-1.53634 z m 13.958837,4.78368 a 1.5991476,0.61020106 61.76368 0 0 -0.119373,0.0289 1.5991476,0.61020106 61.76368 0 0 0.219109,1.69758 1.5991476,0.61020106 61.76368 0 0 1.293978,1.12034 1.5991476,0.61020106 61.76368 0 0 -0.21911,-1.69757 1.5991476,0.61020106 61.76368 0 0 -1.174604,-1.14929 z m -7.276557,4.07056 a 0.41298711,0.15758719 61.76368 0 0 -0.03101,0.007 0.41298711,0.15758719 61.76368 0 0 0.05633,0.43874 0.41298711,0.15758719 61.76368 0 0 0.334347,0.28887 0.41298711,0.15758719 61.76368 0 0 -0.05633,-0.43822 0.41298711,0.15758719 61.76368 0 0 -0.303341,-0.29662 z m 12.24008,1.5906 a 1.7797126,0.67910087 61.76368 0 0 0.420643,1.29242 1.7797126,0.67910087 61.76368 0 0 1.440224,1.24644 1.7797126,0.67910087 61.76368 0 0 0.03049,-0.0222 c -0.636595,-0.80388 -1.271301,-1.64019 -1.891357,-2.51664 z m -1.788003,2.69389 a 0.50128573,0.19128008 61.76368 0 0 -0.03773,0.009 0.50128573,0.19128008 61.76368 0 0 0.06873,0.53227 0.50128573,0.19128008 61.76368 0 0 0.40566,0.35088 0.50128573,0.19128008 61.76368 0 0 -0.06873,-0.53175 0.50128573,0.19128008 61.76368 0 0 -0.367934,-0.3607 z m 5.698356,3.1812 a 1.7750633,0.6773268 61.76368 0 0 -0.132808,0.0326 1.7750633,0.6773268 61.76368 0 0 0.243397,1.88464 1.7750633,0.6773268 61.76368 0 0 1.436608,1.24334 1.7750633,0.6773268 61.76368 0 0 -0.243397,-1.88464 1.7750633,0.6773268 61.76368 0 0 -1.3038,-1.2759 z m -1.5198,1.43196 a 0.56676883,0.21626706 61.76368 0 0 -0.04237,0.0103 0.56676883,0.21626706 61.76368 0 0 0.07751,0.6015 0.56676883,0.21626706 61.76368 0 0 0.458888,0.3974 0.56676883,0.21626706 61.76368 0 0 -0.07751,-0.60203 0.56676883,0.21626706 61.76368 0 0 -0.416511,-0.40721 z m 0.06304,4.80901 a 1.1402987,0.43511403 61.76368 0 0 -0.08527,0.0207 1.1402987,0.43511403 61.76368 0 0 0.156064,1.21078 1.1402987,0.43511403 61.76368 0 0 0.922938,0.79839 1.1402987,0.43511403 61.76368 0 0 -0.156062,-1.21026 1.1402987,0.43511403 61.76368 0 0 -0.837674,-0.81958 z" /><path
       id="path16797"
       style="fill:#79ab56;fill-opacity:0.705584;stroke-width:0.0444237;stroke-linecap:round"
       d="m 102.23438,140.70482 a 0.23747192,0.62234014 7.6508882 0 1 0.0152,10e-4 0.23747192,0.62234014 7.6508882 0 1 0.14738,0.24345 c -0.0296,0.25449 -0.06,0.50855 -0.0891,0.76329 a 0.23747192,0.62234014 7.6508882 0 1 -0.22395,0.22689 0.23747192,0.62234014 7.6508882 0 1 -0.15207,-0.64837 0.23747192,0.62234014 7.6508882 0 1 0.30262,-0.58623 z m -1.02751,4.94946 a 0.31703499,0.8308503 7.6508882 0 1 0.0205,0.002 0.31703499,0.8308503 7.6508882 0 1 0.20361,0.86527 0.31703499,0.8308503 7.6508882 0 1 -0.4245,0.7813 0.31703499,0.8308503 7.6508882 0 1 -0.20366,-0.86577 0.31703499,0.8308503 7.6508882 0 1 0.40412,-0.78222 z m -5.416347,2.01364 a 0.21191713,0.55536902 7.6508882 0 1 -9.61e-4,0.30886 0.21191713,0.55536902 7.6508882 0 1 -0.283533,0.5223 0.21191713,0.55536902 7.6508882 0 1 -0.01503,-0.004 c 0.100057,-0.2755 0.1979,-0.55075 0.299544,-0.82655 z m -0.149473,3.80993 a 0.82153594,2.1529908 7.6508882 0 1 0.05378,0.002 0.82153594,2.1529908 7.6508882 0 1 0.527529,2.243 0.82153594,2.1529908 7.6508882 0 1 -1.10055,2.02482 0.82153594,2.1529908 7.6508882 0 1 -0.442466,-0.52604 0.58794159,1.5408124 7.6508882 0 1 -0.0036,0.029 0.58794159,1.5408124 7.6508882 0 1 -0.787975,1.44895 0.58794159,1.5408124 7.6508882 0 1 -0.377597,-1.60533 0.58794159,1.5408124 7.6508882 0 1 0.787976,-1.44895 0.58794159,1.5408124 7.6508882 0 1 0.258644,0.23404 0.82153594,2.1529908 7.6508882 0 1 0.03746,-0.37517 0.82153594,2.1529908 7.6508882 0 1 1.046801,-2.0268 z m 2.505398,4.45885 a 0.53605705,1.4048392 7.6508882 0 1 0.03506,0.002 0.53605705,1.4048392 7.6508882 0 1 0.344596,1.46335 0.53605705,1.4048392 7.6508882 0 1 -0.71864,1.32089 0.53605705,1.4048392 7.6508882 0 1 -0.344082,-1.46342 0.53605705,1.4048392 7.6508882 0 1 0.683094,-1.32276 z m -5.625326,16.20507 a 0.83119768,2.1783111 7.6508882 0 1 0.05429,0.002 0.83119768,2.1783111 7.6508882 0 1 0.533497,2.26939 0.83119768,2.1783111 7.6508882 0 1 -1.113578,2.04858 0.83119768,2.1783111 7.6508882 0 1 -0.534068,-2.26987 0.83119768,2.1783111 7.6508882 0 1 1.059828,-2.05057 z m -1.24937,4.7047 a 0.68845963,1.804239 7.6508882 0 1 0.04493,0.002 0.68845963,1.804239 7.6508882 0 1 0.442086,1.88008 0.68845963,1.804239 7.6508882 0 1 -0.922396,1.69632 0.68845963,1.804239 7.6508882 0 1 -0.44203,-1.87958 0.68845963,1.804239 7.6508882 0 1 0.877433,-1.69873 z m -3.125082,1.89932 a 0.76313412,1.9999377 7.6508882 0 1 0.05018,0.003 0.76313412,1.9999377 7.6508882 0 1 0.490076,2.08385 0.76313412,1.9999377 7.6508882 0 1 -1.022551,1.88074 0.76313412,1.9999377 7.6508882 0 1 -0.106152,-0.0348 c 0.167127,-1.26011 0.350632,-2.57141 0.54723,-3.9194 a 0.76313412,1.9999377 7.6508882 0 1 0.04127,-0.0125 z"
       inkscape:transform-center-x="7.7099184"
       inkscape:transform-center-y="31.614362" /><path
       id="use16731"
       style="fill:#79ab56;fill-opacity:0.705584;stroke-width:0.0444237;stroke-linecap:round"
       d="m 63.091699,140.1583 a 0.62234014,0.23747192 76.18677 0 0 -0.01499,0.003 0.62234014,0.23747192 76.18677 0 0 -0.120406,0.25787 c 0.05669,0.24985 0.114272,0.49916 0.170531,0.7493 a 0.62234014,0.23747192 76.18677 0 0 0.247015,0.20154 0.62234014,0.23747192 76.18677 0 0 0.08165,-0.66095 0.62234014,0.23747192 76.18677 0 0 -0.363801,-0.55034 z m 1.552876,4.81055 a 0.8308503,0.31703499 76.18677 0 0 -0.02015,0.004 0.8308503,0.31703499 76.18677 0 0 -0.109554,0.88212 0.8308503,0.31703499 76.18677 0 0 0.505911,0.73121 0.8308503,0.31703499 76.18677 0 0 0.109555,-0.88263 0.8308503,0.31703499 76.18677 0 0 -0.485758,-0.73432 z m 5.601208,1.42058 a 0.55536902,0.21191713 76.18677 0 0 0.03411,0.30697 0.55536902,0.21191713 76.18677 0 0 0.337963,0.48886 0.55536902,0.21191713 76.18677 0 0 0.01447,-0.006 c -0.129053,-0.26317 -0.255877,-0.52632 -0.38654,-0.78962 z m 0.55759,3.77187 a 2.1529908,0.82153594 76.18677 0 0 -0.05323,0.008 2.1529908,0.82153594 76.18677 0 0 -0.283703,2.28668 2.1529908,0.82153594 76.18677 0 0 1.311547,1.89497 2.1529908,0.82153594 76.18677 0 0 0.38344,-0.5705 1.5408124,0.58794159 76.18677 0 0 0.0067,0.0284 1.5408124,0.58794159 76.18677 0 0 0.938961,1.35599 1.5408124,0.58794159 76.18677 0 0 0.203089,-1.63659 1.5408124,0.58794159 76.18677 0 0 -0.938961,-1.35599 1.5408124,0.58794159 76.18677 0 0 -0.232027,0.26045 2.1529908,0.82153594 76.18677 0 0 -0.07751,-0.36897 2.1529908,0.82153594 76.18677 0 0 -1.258321,-1.90273 z m -2.012282,4.70204 a 1.4048392,0.53605705 76.18677 0 0 -0.03462,0.006 1.4048392,0.53605705 76.18677 0 0 -0.18552,1.49189 1.4048392,0.53605705 76.18677 0 0 0.85628,1.2361 1.4048392,0.53605705 76.18677 0 0 0.185002,-1.49189 1.4048392,0.53605705 76.18677 0 0 -0.82114,-1.24179 z m 7.33237,15.50758 a 2.1783111,0.83119768 76.18677 0 0 -0.05374,0.008 2.1783111,0.83119768 76.18677 0 0 -0.286804,2.31356 2.1783111,0.83119768 76.18677 0 0 1.32705,1.91719 2.1783111,0.83119768 76.18677 0 0 0.28732,-2.31408 2.1783111,0.83119768 76.18677 0 0 -1.273823,-1.92494 z m 1.74718,4.54339 a 1.804239,0.68845963 76.18677 0 0 -0.04444,0.007 1.804239,0.68845963 76.18677 0 0 -0.237712,1.91668 1.804239,0.68845963 76.18677 0 0 1.099158,1.5875 1.804239,0.68845963 76.18677 0 0 0.237711,-1.91617 1.804239,0.68845963 76.18677 0 0 -1.054715,-1.59473 z m 3.310909,1.55288 a 1.9999377,0.76313412 76.18677 0 0 -0.04961,0.008 1.9999377,0.76313412 76.18677 0 0 -0.263551,2.12441 1.9999377,0.76313412 76.18677 0 0 1.21853,1.7601 1.9999377,0.76313412 76.18677 0 0 0.101804,-0.046 c -0.30143,-1.2349 -0.624637,-2.51892 -0.9648,-3.83802 a 1.9999377,0.76313412 76.18677 0 0 -0.04237,-0.008 z" /><path
       style="fill:url(#linearGradient16551);fill-opacity:1;stroke-width:0.264583;stroke-linecap:round"
       d="m 85.492397,121.726 c -0.895159,2.58577 -2.287527,9.14979 -3.431257,18.0014 -1.143729,8.85162 -2.038805,19.99034 -2.560937,30.30889 -0.522132,10.31855 -0.671311,19.8163 -1.989137,29.14025 -1.317826,9.32394 -3.804094,18.4734 0.994847,22.67536 4.798942,4.20196 16.88222,3.45608 21.059384,0.19903 4.177163,-3.25705 0.447683,-9.02532 -1.839861,-14.42079 -2.287544,-5.39548 -3.132894,-10.41785 -3.729648,-17.90195 -0.596753,-7.48409 -0.944838,-17.42938 -1.815066,-27.32522 -0.870228,-9.89585 -2.262569,-19.74169 -3.182533,-26.47979 -0.919964,-6.7381 -1.367501,-10.36813 -1.790161,-12.87937 -0.42266,-2.51124 -0.820472,-3.90358 -1.715631,-1.31781 z"
       id="path15815"
       inkscape:path-effect="#path-effect15817"
       inkscape:original-d="m 85.989647,117.74755 c -1.392105,6.56428 -2.784473,13.1283 -4.177104,19.69206 -0.894848,11.13943 -1.789925,22.27815 -2.685283,33.41683 -0.148921,9.4984 -0.298101,18.99615 -0.447545,28.49382 -2.48616,9.15031 -4.97243,18.29977 -7.459118,27.44954 12.084275,-0.74566 24.167553,-1.49154 36.251293,-2.23773 -3.72936,-5.76823 -7.45884,-11.5365 -11.188666,-17.30515 -0.845119,-5.0223 -1.690468,-10.04467 -2.5361,-15.06741 -0.347832,-9.94542 -0.695918,-19.89071 -1.044276,-29.83646 -1.392129,-9.84596 -2.78447,-19.6918 -4.177104,-29.53809 -0.447291,-3.62991 -0.894829,-7.25994 -1.342639,-10.89031 -0.397563,-1.39213 -0.795374,-2.78447 -1.193458,-4.1771 z"
       sodipodi:nodetypes="cccccccccccc" /><path
       style="fill:url(#linearGradient7630);fill-opacity:1;stroke-width:0.264583;stroke-linecap:round"
       d="m 33.594075,159.72264 c 7.054822,10.96641 14.110094,21.93351 18.877408,31.0649 4.767314,9.13139 7.247547,16.4284 8.487653,20.07688 1.240106,3.64847 16.849814,19.4763 19.085214,19.30166 2.2354,-0.17464 6.705608,-0.52388 8.172418,-1.85088 1.466809,-1.32701 -0.06986,-3.63201 -2.409942,-6.547 -2.340085,-2.91499 -5.483417,-6.4397 -8.661656,-10.42121 -3.178238,-3.9815 -6.391047,-8.41943 -9.91841,-14.27069 -3.527363,-5.85126 -7.369023,-13.11549 -13.026861,-19.57669 -5.657838,-6.4612 -13.131903,-12.11914 -20.605824,-17.77697 z"
       id="path7501"
       inkscape:path-effect="#path-effect7503"
       inkscape:original-d="m 33.594075,159.72264 c 0,0 14.110159,21.93347 21.164467,32.89922 2.48041,7.29702 4.960643,14.59403 7.4407,21.89103 l 15.609708,15.82783 c 4.470822,-0.349 8.94103,-0.69824 13.411149,-1.04775 -1.536462,-2.30482 -3.073124,-4.60982 -4.610084,-6.91512 -3.143257,-3.52466 -6.286589,-7.04937 -9.430371,-10.57455 -3.212665,-4.43784 -6.425472,-8.87578 -9.638602,-13.31406 -3.841549,-7.26425 -7.683206,-14.52848 -11.525205,-21.79311 -7.473807,-5.65768 -22.421762,-16.97349 -22.421762,-16.97349 z"
       sodipodi:nodetypes="cccccccccc" /><path
       id="path11671"
       style="fill:#79ab56;fill-opacity:0.705584;stroke-width:0.264583;stroke-linecap:round"
       d="m 36.100064,163.01478 a 2.222254,0.88496834 63.681232 0 0 -0.173634,0.0382 2.222254,0.88496834 63.681232 0 0 -0.117305,0.11575 c 0.772781,1.20334 1.539781,2.40197 2.303737,3.59824 a 2.222254,0.88496834 63.681232 0 0 -0.40773,-2.11461 2.222254,0.88496834 63.681232 0 0 -1.605068,-1.63762 z m 5.145422,2.80293 a 1.9661564,0.78298253 63.681232 0 0 -0.153479,0.0336 1.9661564,0.78298253 63.681232 0 0 0.170014,2.10994 1.9661564,0.78298253 63.681232 0 0 0.777734,1.10279 1.6287895,0.64863294 63.681232 0 0 0.232541,1.67224 1.6287895,0.64863294 63.681232 0 0 1.30328,1.17202 1.6287895,0.64863294 63.681232 0 0 0.07183,-0.0517 1.6287895,0.64863294 63.681232 0 0 0.01033,-0.0114 1.6287895,0.64863294 63.681232 0 0 0.09612,-0.74104 1.6287895,0.64863294 63.681232 0 0 -0.0057,-0.0305 1.6287895,0.64863294 63.681232 0 0 -0.31316,-0.9126 1.6287895,0.64863294 63.681232 0 0 -0.548284,-0.817 1.9661564,0.78298253 63.681232 0 0 -0.221178,-2.0774 1.9661564,0.78298253 63.681232 0 0 -1.420067,-1.449 z m -1.384931,1.30482 a 1.5839776,0.63078749 63.681232 0 0 -0.124019,0.0274 1.5839776,0.63078749 63.681232 0 0 0.136942,1.69964 1.5839776,0.63078749 63.681232 0 0 1.267622,1.13998 1.5839776,0.63078749 63.681232 0 0 -0.136942,-1.69964 1.5839776,0.63078749 63.681232 0 0 -1.143603,-1.16738 z m 8.524546,10.97246 a 0.50000185,0.19911575 63.681232 0 0 -0.03876,0.008 0.50000185,0.19911575 63.681232 0 0 0.04289,0.53641 0.50000185,0.19911575 63.681232 0 0 0.400491,0.36018 0.50000185,0.19911575 63.681232 0 0 -0.04341,-0.53641 0.50000185,0.19911575 63.681232 0 0 -0.361217,-0.36845 z m 0.882635,2.25413 a 1.5811907,0.62967765 63.681232 0 0 -0.123506,0.0269 1.5811907,0.62967765 63.681232 0 0 0.136425,1.69653 1.5811907,0.62967765 63.681232 0 0 1.21543,1.156 2.1284018,0.84759355 63.681232 0 0 0.381372,1.05575 2.1284018,0.84759355 63.681232 0 0 1.066599,1.38079 2.5586045,1.0189133 63.681232 0 0 1.238687,0.61651 2.5586045,1.0189133 63.681232 0 0 -0.221177,-2.74506 2.5586045,1.0189133 63.681232 0 0 -2.047421,-1.84175 2.5586045,1.0189133 63.681232 0 0 -0.255278,0.32712 2.1284018,0.84759355 63.681232 0 0 -0.03359,0.0253 1.5811907,0.62967765 63.681232 0 0 -0.215493,-0.53279 1.5811907,0.62967765 63.681232 0 0 -1.142047,-1.1653 z m 3.515031,0.11472 a 0.8031649,0.31984439 63.681232 0 0 -0.06253,0.0134 0.8031649,0.31984439 63.681232 0 0 0.0036,0.7152 0.87078834,0.34677407 63.681232 0 0 0.101803,0.91726 0.87078834,0.34677407 63.681232 0 0 0.696597,0.62631 0.87078834,0.34677407 63.681232 0 0 -0.04083,-0.86093 0.8031649,0.31984439 63.681232 0 0 -0.118853,-0.81958 0.8031649,0.31984439 63.681232 0 0 -0.57981,-0.5917 z m 2.718181,9.27334 a 2.3112187,0.92039675 63.681232 0 0 -0.180871,0.0398 2.3112187,0.92039675 63.681232 0 0 0.199475,2.47996 2.3112187,0.92039675 63.681232 0 0 1.850015,1.66346 2.3112187,0.92039675 63.681232 0 0 -0.199989,-2.47944 2.3112187,0.92039675 63.681232 0 0 -1.66863,-1.70377 z m 4.785234,4.64054 a 0.87866926,0.34991249 63.681232 0 0 -0.06873,0.0155 0.87866926,0.34991249 63.681232 0 0 0.07596,0.94257 0.87866926,0.34991249 63.681232 0 0 0.703316,0.63252 0.87866926,0.34991249 63.681232 0 0 -0.07597,-0.9431 0.87866926,0.34991249 63.681232 0 0 -0.634587,-0.6475 z m 4.647266,2.99311 a 2.1695368,0.86397481 63.681232 0 0 -0.169498,0.0372 2.1695368,0.86397481 63.681232 0 0 0.187581,2.3275 2.1695368,0.86397481 63.681232 0 0 1.736328,1.56166 2.1695368,0.86397481 63.681232 0 0 -0.187586,-2.3275 2.1695368,0.86397481 63.681232 0 0 -1.566825,-1.59886 z m -1.550294,0.96324 a 0.56027013,0.2231164 63.681232 0 0 -0.04341,0.01 0.56027013,0.2231164 63.681232 0 0 0.04806,0.601 0.56027013,0.2231164 63.681232 0 0 0.448553,0.4036 0.56027013,0.2231164 63.681232 0 0 -0.04858,-0.60152 0.56027013,0.2231164 63.681232 0 0 -0.404625,-0.41289 z m -5.780009,0.84078 a 0.69420284,0.27645242 63.681232 0 0 -0.05426,0.0119 0.69420284,0.27645242 63.681232 0 0 0.05994,0.74517 0.69420284,0.27645242 63.681232 0 0 0.555522,0.49971 0.69420284,0.27645242 63.681232 0 0 -0.05994,-0.74516 0.69420284,0.27645242 63.681232 0 0 -0.501262,-0.5116 z m 9.066628,3.47368 a 0.88545215,0.35261366 63.681232 0 0 -0.06873,0.015 0.88545215,0.35261366 63.681232 0 0 0.07648,0.95032 0.88545215,0.35261366 63.681232 0 0 0.708484,0.63717 0.88545215,0.35261366 63.681232 0 0 -0.07648,-0.94981 0.88545215,0.35261366 63.681232 0 0 -0.639756,-0.65268 z m -6.988204,3.44114 c 0.599461,1.28462 1.199915,2.52765 1.821595,3.73207 a 2.1391203,0.85186195 63.681232 0 0 -0.315744,-2.16576 2.1391203,0.85186195 63.681232 0 0 -1.505851,-1.56631 z m 8.935889,2.63498 a 2.534919,1.009481 63.681232 0 0 -0.19792,0.0434 2.534919,1.009481 63.681232 0 0 0.219108,2.71973 2.534919,1.009481 63.681232 0 0 2.028818,1.8247 2.534919,1.009481 63.681232 0 0 -0.219111,-2.71974 2.534919,1.009481 63.681232 0 0 -1.830895,-1.8681 z m -2.151807,1.55752 a 1.7875403,0.71185225 63.681232 0 0 -0.139527,0.031 1.7875403,0.71185225 63.681232 0 0 0.154513,1.91771 1.7875403,0.71185225 63.681232 0 0 1.430407,1.28675 1.7875403,0.71185225 63.681232 0 0 -0.154516,-1.91823 1.7875403,0.71185225 63.681232 0 0 -1.290877,-1.31724 z m 0.631488,2.96055 a 0.66870308,0.26629767 63.681232 0 0 -0.05219,0.0119 0.66870308,0.26629767 63.681232 0 0 0.05736,0.71727 0.66870308,0.26629767 63.681232 0 0 0.535366,0.48163 0.66870308,0.26629767 63.681232 0 0 -0.05788,-0.71779 0.66870308,0.26629767 63.681232 0 0 -0.482656,-0.49299 z m 4.537191,1.77612 a 2.6964421,1.0738043 63.681232 0 0 -0.210839,0.0465 2.6964421,1.0738043 63.681232 0 0 0.233061,2.89285 2.6964421,1.0738043 63.681232 0 0 2.158007,1.94096 2.6964421,1.0738043 63.681232 0 0 -0.233062,-2.89284 2.6964421,1.0738043 63.681232 0 0 -1.947167,-1.98748 z m -4.50102,1.62574 a 0.34387788,0.13694251 63.681232 0 0 -0.02687,0.006 0.34387788,0.13694251 63.681232 0 0 0.02946,0.36898 0.34387788,0.13694251 63.681232 0 0 0.275436,0.24753 0.34387788,0.13694251 63.681232 0 0 -0.02997,-0.36897 0.34387788,0.13694251 63.681232 0 0 -0.248051,-0.25322 z m 8.234126,2.58641 a 2.637114,1.0501781 63.681232 0 0 -0.206191,0.0455 2.637114,1.0501781 63.681232 0 0 0.227892,2.82928 2.637114,1.0501781 63.681232 0 0 2.110465,1.89808 2.637114,1.0501781 63.681232 0 0 -0.22789,-2.82928 2.637114,1.0501781 63.681232 0 0 -1.904276,-1.94355 z m 10.51977,5.47253 a 1.9123917,0.76157182 63.681232 0 0 -0.149345,0.0331 1.9123917,0.76157182 63.681232 0 0 0.165365,2.05156 1.9123917,0.76157182 63.681232 0 0 1.53014,1.37666 1.9123917,0.76157182 63.681232 0 0 -0.165368,-2.05208 1.9123917,0.76157182 63.681232 0 0 -1.380792,-1.40921 z" /><path
       style="fill:url(#linearGradient12028);fill-opacity:1;stroke-width:0.264583;stroke-linecap:round"
       d="m 147.99471,167.62356 c -6.5346,5.27644 -13.06925,10.55293 -17.77173,18.66044 -4.70248,8.10752 -7.57267,19.0453 -11.8049,26.86051 -4.23224,7.81522 -9.82522,12.50555 -14.8573,14.67624 -5.032087,2.17069 -9.502295,1.82145 -10.969105,0.49445 -1.466809,-1.32701 0.06986,-3.63201 2.654291,-6.28636 2.584434,-2.65435 6.216544,-5.65783 9.394784,-9.63928 3.17825,-3.98144 5.90234,-8.94068 9.93313,-16.40192 4.0308,-7.46124 9.36837,-17.42464 15.15626,-22.56884 5.78789,-5.1442 12.02618,-5.46972 18.26457,-5.79524 z"
       id="path12020"
       inkscape:path-effect="#path-effect12026"
       inkscape:original-d="m 147.99471,167.62356 c 0,0 -13.06902,10.55322 -19.6038,15.82933 -2.8701,10.93871 -5.74029,21.87649 -8.6112,32.81576 -5.59363,4.69136 -11.18661,9.3817 -16.78022,14.07207 -4.470819,-0.349 -8.941027,-0.69824 -13.411146,-1.04775 1.536462,-2.30482 3.073124,-4.60982 4.610084,-6.91512 3.631993,-3.00334 7.264102,-6.00682 10.896552,-9.01062 2.72393,-4.95916 5.44802,-9.9184 8.17242,-14.87799 5.33759,-9.96267 10.67517,-19.92607 16.01215,-29.88912 6.23849,-0.32524 18.71516,-0.97656 18.71516,-0.97656 z"
       sodipodi:nodetypes="cccccccccc" /><path
       id="use12074"
       style="fill:#79ab56;fill-opacity:0.705584;stroke-width:0.130285;stroke-linecap:round"
       d="m 143.92345,168.34882 a 0.53616869,1.4051317 31.763679 0 0 -0.66094,0.42736 0.81330025,2.1314075 31.763679 0 0 -1.30483,1.34876 0.81330025,2.1314075 31.763679 0 0 -0.43046,2.24069 0.81330025,2.1314075 31.763679 0 0 1.81333,-1.38441 0.81330025,2.1314075 31.763679 0 0 0.58446,-1.37408 0.53616869,1.4051317 31.763679 0 0 0.14159,-1.22576 0.53616869,1.4051317 31.763679 0 0 -0.14315,-0.0326 z m -5.36039,2.26291 a 0.64951527,1.7021779 31.763679 0 0 -1.27486,1.14463 0.64951527,1.7021779 31.763679 0 0 -0.34365,1.78904 0.64951527,1.7021779 31.763679 0 0 1.44798,-1.10536 0.64951527,1.7021779 31.763679 0 0 0.34417,-1.78903 0.64951527,1.7021779 31.763679 0 0 -0.17364,-0.0393 z m -7.97006,6.90139 a 0.11749701,0.30792317 31.763679 0 0 -0.23047,0.20722 0.11749701,0.30792317 31.763679 0 0 -0.062,0.3235 0.11749701,0.30792317 31.763679 0 0 0.262,-0.19999 0.11749701,0.30792317 31.763679 0 0 0.062,-0.3235 0.11749701,0.30792317 31.763679 0 0 -0.0315,-0.007 z m 0.58963,2.91145 a 0.41384885,1.0845693 31.763679 0 0 -0.81235,0.72967 0.41384885,1.0845693 31.763679 0 0 -0.21911,1.13998 0.41384885,1.0845693 31.763679 0 0 0.92294,-0.70435 0.41384885,1.0845693 31.763679 0 0 0.21911,-1.13998 0.41384885,1.0845693 31.763679 0 0 -0.11059,-0.0253 z m -6.50865,3.32486 a 0.87116027,2.2830408 31.763679 0 0 -1.70996,1.53479 0.87116027,2.2830408 31.763679 0 0 -0.46096,2.39986 0.87116027,2.2830408 31.763679 0 0 1.94251,-1.4826 0.87116027,2.2830408 31.763679 0 0 0.46096,-2.39986 0.87116027,2.2830408 31.763679 0 0 -0.23255,-0.0522 z m 3.27835,2.88872 a 0.36191744,0.94847327 31.763679 0 0 -0.71054,0.63768 0.36191744,0.94847327 31.763679 0 0 -0.19121,0.99735 0.36191744,0.94847327 31.763679 0 0 0.80668,-0.61598 0.36191744,0.94847327 31.763679 0 0 0.19171,-0.99684 0.36191744,0.94847327 31.763679 0 0 -0.0966,-0.0222 z m -1.41748,0.82837 a 0.11413855,0.29912171 31.763679 0 0 -0.22427,0.20102 0.11413855,0.29912171 31.763679 0 0 -0.0605,0.31419 0.11413855,0.29912171 31.763679 0 0 0.25476,-0.19379 0.11413855,0.29912171 31.763679 0 0 0.0605,-0.31471 0.11413855,0.29912171 31.763679 0 0 -0.0305,-0.007 z m -1.85518,0.20773 a 0.1822162,0.47753209 31.763679 0 0 -0.3576,0.32143 0.1822162,0.47753209 31.763679 0 0 -0.0961,0.50178 0.1822162,0.47753209 31.763679 0 0 0.40617,-0.31006 0.1822162,0.47753209 31.763679 0 0 0.0966,-0.50178 0.1822162,0.47753209 31.763679 0 0 -0.0491,-0.0114 z m -2.34922,0.56535 a 0.51135641,1.3401064 31.763679 0 0 -1.00406,0.90071 0.51135641,1.3401064 31.763679 0 0 -0.27027,1.4087 0.51135641,1.3401064 31.763679 0 0 1.13998,-0.87023 0.51135641,1.3401064 31.763679 0 0 0.27079,-1.40818 0.51135641,1.3401064 31.763679 0 0 -0.13644,-0.031 z m -3.69847,2.67425 a 0.58577549,1.5351356 31.763679 0 0 -1.1498,1.03198 0.58577549,1.5351356 31.763679 0 0 -0.31006,1.61385 0.58577549,1.5351356 31.763679 0 0 1.30586,-0.99683 0.58577549,1.5351356 31.763679 0 0 0.31007,-1.61386 0.58577549,1.5351356 31.763679 0 0 -0.15607,-0.0351 z m 8.45323,1.44125 a 0.86880481,2.2768676 31.763679 0 0 -1.70533,1.53066 0.86880481,2.2768676 31.763679 0 0 -0.45991,2.39314 0.86880481,2.2768676 31.763679 0 0 0.66042,-0.10025 c 0.5177,-1.28504 1.04979,-2.55584 1.5999,-3.80236 a 0.86880481,2.2768676 31.763679 0 0 -0.0951,-0.0212 z m -10.17923,2.96365 a 0.64751911,1.6969466 31.763679 0 0 -1.27072,1.14101 0.64751911,1.6969466 31.763679 0 0 -0.34262,1.78387 0.64751911,1.6969466 31.763679 0 0 1.44385,-1.10225 0.64751911,1.6969466 31.763679 0 0 0.34261,-1.78335 0.64751911,1.6969466 31.763679 0 0 -0.17312,-0.0393 z m 7.69669,3.33055 a 0.50856048,1.3327792 31.763679 0 0 -0.95239,0.88108 0.50856048,1.3327792 31.763679 0 0 -0.26924,1.40095 0.50856048,1.3327792 31.763679 0 0 0.34933,-0.0434 c 0.2894,-0.74652 0.57989,-1.49041 0.8723,-2.23862 z m -4.45915,2.39624 a 0.18171224,0.47621137 31.763679 0 0 -0.35658,0.32039 0.18171224,0.47621137 31.763679 0 0 -0.0961,0.50022 0.18171224,0.47621137 31.763679 0 0 0.40514,-0.30902 0.18171224,0.47621137 31.763679 0 0 0.0961,-0.50075 0.18171224,0.47621137 31.763679 0 0 -0.0486,-0.0108 z m -6.45233,1.40094 a 0.6964525,1.8251858 31.763679 0 0 -1.36684,1.2268 0.6964525,1.8251858 31.763679 0 0 -0.36897,1.91875 0.6964525,1.8251858 31.763679 0 0 1.55288,-1.18546 0.6964525,1.8251858 31.763679 0 0 0.36897,-1.91823 0.6964525,1.8251858 31.763679 0 0 -0.18604,-0.0419 z m -1.55649,0.73381 a 0.20019694,0.52465397 31.763679 0 0 -0.39325,0.35243 0.20019694,0.52465397 31.763679 0 0 -0.10594,0.5519 0.20019694,0.52465397 31.763679 0 0 0.44648,-0.34106 0.20019694,0.52465397 31.763679 0 0 0.10594,-0.55139 0.20019694,0.52465397 31.763679 0 0 -0.0532,-0.0119 z m 7.67705,2.54868 a 0.61150861,1.6025741 31.763679 0 0 -1.19993,1.07745 0.61150861,1.6025741 31.763679 0 0 -0.38343,0.81752 0.75933206,1.9899735 31.763679 0 0 -1.00408,1.13379 0.75933206,1.9899735 31.763679 0 0 -0.52141,1.95439 0.69173908,1.8128333 31.763679 0 0 -0.0615,0.0961 0.69173908,1.8128333 31.763679 0 0 -0.36587,1.90531 0.69173908,1.8128333 31.763679 0 0 1.54255,-1.17719 0.69173908,1.8128333 31.763679 0 0 0.50745,-1.69499 0.75933206,1.9899735 31.763679 0 0 0.18965,-0.28421 0.75933206,1.9899735 31.763679 0 0 0.56535,-1.3901 0.61150861,1.6025741 31.763679 0 0 0.57102,-0.71675 0.61150861,1.6025741 31.763679 0 0 0.3235,-1.68465 0.61150861,1.6025741 31.763679 0 0 -0.1633,-0.0367 z m -6.15466,1.79782 a 0.50634801,1.3269809 31.763679 0 0 -0.99374,0.89246 0.50634801,1.3269809 31.763679 0 0 -0.2682,1.39473 0.50634801,1.3269809 31.763679 0 0 1.12913,-0.86195 0.50634801,1.3269809 31.763679 0 0 0.2682,-1.39475 0.50634801,1.3269809 31.763679 0 0 -0.13539,-0.0305 z m 1.079,2.13476 a 0.4956207,1.2988681 31.763679 0 0 -0.97256,0.87333 0.4956207,1.2988681 31.763679 0 0 -0.26251,1.36529 0.4956207,1.2988681 31.763679 0 0 1.10485,-0.84336 0.4956207,1.2988681 31.763679 0 0 0.26251,-1.3653 0.4956207,1.2988681 31.763679 0 0 -0.13229,-0.03 z m -4.91753,0.11782 a 0.48319656,1.2663082 31.763679 0 0 -0.94826,0.85111 0.48319656,1.2663082 31.763679 0 0 -0.2558,1.33118 0.48319656,1.2663082 31.763679 0 0 1.07745,-0.82217 0.48319656,1.2663082 31.763679 0 0 0.2558,-1.33119 0.48319656,1.2663082 31.763679 0 0 -0.12919,-0.0289 z m 6.31796,1.23403 a 0.19794852,0.51876158 31.763679 0 0 -0.3886,0.34881 0.19794852,0.51876158 31.763679 0 0 -0.10439,0.54519 0.19794852,0.51876158 31.763679 0 0 0.44131,-0.33693 0.19794852,0.51876158 31.763679 0 0 0.10491,-0.54518 0.19794852,0.51876158 31.763679 0 0 -0.0532,-0.0119 z m 3.28869,0.14779 a 0.77878606,2.0409565 31.763679 0 0 -1.52859,1.37201 0.77878606,2.0409565 31.763679 0 0 -0.41238,2.14509 0.77878606,2.0409565 31.763679 0 0 0.0543,0.0124 c 0.29899,-0.50154 0.59247,-1.01605 0.87954,-1.54616 0.34664,-0.64011 0.68325,-1.30304 1.01337,-1.98179 a 0.77878606,2.0409565 31.763679 0 0 -0.006,-0.002 z m -8.95243,6.14226 a 0.45860612,1.2018642 31.763679 0 0 -0.9002,0.8077 0.45860612,1.2018642 31.763679 0 0 -0.24236,1.2635 0.45860612,1.2018642 31.763679 0 0 1.02216,-0.78032 0.45860612,1.2018642 31.763679 0 0 0.24288,-1.26348 0.45860612,1.2018642 31.763679 0 0 -0.12248,-0.0274 z m -8.68629,3.89693 a 0.76477796,2.0042455 31.763679 0 0 -1.5012,1.34771 0.76477796,2.0042455 31.763679 0 0 -0.404621,2.10685 0.76477796,2.0042455 31.763679 0 0 1.705321,-1.30172 0.76477796,2.0042455 31.763679 0 0 0.40462,-2.10634 0.76477796,2.0042455 31.763679 0 0 -0.20412,-0.0465 z m 0.0961,2.80034 a 0.25119656,0.65830821 31.763679 0 0 -0.49299,0.44286 0.25119656,0.65830821 31.763679 0 0 -0.13281,0.69195 0.25119656,0.65830821 31.763679 0 0 0.55965,-0.42788 0.25119656,0.65830821 31.763679 0 0 0.13334,-0.69195 0.25119656,0.65830821 31.763679 0 0 -0.0672,-0.015 z m -5.705593,0.98186 a 0.25683919,0.67309576 31.763679 0 0 -0.504361,0.45268 0.25683919,0.67309576 31.763679 0 0 -0.135905,0.70745 0.25683919,0.67309576 31.763679 0 0 0.572564,-0.43718 0.25683919,0.67309576 31.763679 0 0 0.13591,-0.70746 0.25683919,0.67309576 31.763679 0 0 -0.06821,-0.0155 z m 2.894914,1.91564 a 0.33280486,0.8721782 31.763679 0 0 -0.653188,0.58653 0.33280486,0.8721782 31.763679 0 0 -0.176219,0.91674 0.33280486,0.8721782 31.763679 0 0 0.742074,-0.56638 0.33280486,0.8721782 31.763679 0 0 0.176219,-0.91674 0.33280486,0.8721782 31.763679 0 0 -0.08889,-0.0202 z m -2.881993,0.21807 a 0.15941177,0.41776875 31.763679 0 0 -0.31265,0.28061 0.15941177,0.41776875 31.763679 0 0 -0.08474,0.43925 0.15941177,0.41776875 31.763679 0 0 0.35553,-0.27131 0.15941177,0.41776875 31.763679 0 0 0.08475,-0.43925 0.15941177,0.41776875 31.763679 0 0 -0.04289,-0.009 z" /><path
       id="path31632"
       style="opacity:1;fill:url(#linearGradient32133);fill-opacity:1;stroke-width:0.264583;stroke-linecap:round"
       d="m 55.153784,220.42833 1.363759,10.88633 c 17.267618,4.44877 51.148937,4.64107 68.830817,1.36197 l 1.99637,-12.2483 c -24.54845,4.62134 -48.58067,4.32177 -72.190946,0 z"
       sodipodi:nodetypes="ccccc" /><path
       id="use16565"
       style="fill:#79ab56;fill-opacity:0.705584;stroke-width:0.167958;stroke-linecap:round"
       d="m 87.302107,123.65232 a 0.5592252,1.4655557 2.36571 0 0 -0.307476,1.21027 0.5592252,1.4655557 2.36571 0 0 0.498678,1.48724 0.5592252,1.4655557 2.36571 0 0 0.196371,-0.0832 c -0.138113,-0.98757 -0.268036,-1.86624 -0.387573,-2.61432 z m 1.099157,14.07718 a 0.6806559,1.7837878 2.36571 0 0 -0.753959,1.7539 0.6806559,1.7837878 2.36571 0 0 0.606681,1.81074 0.6806559,1.7837878 2.36571 0 0 0.753443,-1.75442 0.6806559,1.7837878 2.36571 0 0 -0.606165,-1.81022 z m -4.347021,14.57792 a 0.8978408,2.352962 2.36571 0 0 -0.994255,2.31407 0.8978408,2.352962 2.36571 0 0 0.799951,2.38797 0.8978408,2.352962 2.36571 0 0 0.994255,-2.31407 0.8978408,2.352962 2.36571 0 0 -0.799951,-2.38797 z m 2.52181,3.72329 a 0.50077027,1.3123635 2.36571 0 0 -0.554488,1.29036 0.50077027,1.3123635 2.36571 0 0 0.445967,1.33222 0.50077027,1.3123635 2.36571 0 0 0.554488,-1.29088 0.50077027,1.3123635 2.36571 0 0 -0.445967,-1.3317 z m -5.342826,2.5585 a 0.81509429,2.1361091 2.36571 0 0 -0.902787,2.10064 0.81509429,2.1361091 2.36571 0 0 0.72657,2.16783 0.81509429,2.1361091 2.36571 0 0 0.90227,-2.10065 0.81509429,2.1361091 2.36571 0 0 -0.726053,-2.16782 z m -0.396876,10.02419 a 0.6266681,1.6423025 2.36571 0 0 -0.694014,1.61489 0.6266681,1.6423025 2.36571 0 0 0.558622,1.66657 0.6266681,1.6423025 2.36571 0 0 0.694015,-1.61489 0.6266681,1.6423025 2.36571 0 0 -0.558623,-1.66657 z m 1.027845,3.63182 a 0.71814656,1.8820392 2.36571 0 0 -0.795301,1.85105 0.71814656,1.8820392 2.36571 0 0 0.639754,1.90997 0.71814656,1.8820392 2.36571 0 0 0.795301,-1.85054 0.71814656,1.8820392 2.36571 0 0 -0.639754,-1.91048 z m 2.237589,0.59944 a 0.81164044,2.1270576 2.36571 0 0 -0.89917,2.09135 0.81164044,2.1270576 2.36571 0 0 0.72347,2.15904 0.81164044,2.1270576 2.36571 0 0 0.898653,-2.09185 0.81164044,2.1270576 2.36571 0 0 -0.722953,-2.15854 z m 4.596619,3.04065 a 0.20415549,0.53502816 2.36571 0 0 -0.226343,0.52607 0.20415549,0.53502816 2.36571 0 0 0.1819,0.54312 0.20415549,0.53502816 2.36571 0 0 0.226344,-0.52607 0.20415549,0.53502816 2.36571 0 0 -0.181901,-0.54312 z m -6.15673,3.0024 a 0.2688387,0.70454276 2.36571 0 0 -0.298173,0.69298 0.2688387,0.70454276 2.36571 0 0 0.239778,0.71521 0.2688387,0.70454276 2.36571 0 0 0.297657,-0.69299 0.2688387,0.70454276 2.36571 0 0 -0.239262,-0.7152 z m 1.033528,12.83694 a 0.25215504,0.66082013 2.36571 0 0 -0.279053,0.64957 0.25215504,0.66082013 2.36571 0 0 0.224793,0.67077 0.25215504,0.66082013 2.36571 0 0 0.279052,-0.65009 0.25215504,0.66082013 2.36571 0 0 -0.224792,-0.67025 z m 1.608687,2.77348 a 0.15101051,0.39575166 2.36571 0 0 -0.166914,0.38912 0.15101051,0.39575166 2.36571 0 0 0.134358,0.40205 0.15101051,0.39575166 2.36571 0 0 0.167432,-0.38964 0.15101051,0.39575166 2.36571 0 0 -0.134876,-0.40153 z m -3.206522,0.0951 a 0.37047645,0.97090381 2.36571 0 0 -0.410311,0.95447 0.37047645,0.97090381 2.36571 0 0 0.330212,0.98547 0.37047645,0.97090381 2.36571 0 0 0.410311,-0.95447 0.37047645,0.97090381 2.36571 0 0 -0.330212,-0.98547 z m 4.873088,1.86501 a 0.20111142,0.52705061 2.36571 0 0 -0.222726,0.51831 0.20111142,0.52705061 2.36571 0 0 0.179318,0.53485 0.20111142,0.52705061 2.36571 0 0 0.222724,-0.51831 0.20111142,0.52705061 2.36571 0 0 -0.179316,-0.53485 z m -0.320394,7.94577 a 0.41189918,1.0794598 2.36571 0 0 -0.455786,1.06143 0.41189918,1.0794598 2.36571 0 0 0.366902,1.09554 0.41189918,1.0794598 2.36571 0 0 0.455786,-1.06144 0.41189918,1.0794598 2.36571 0 0 -0.366902,-1.09553 z m 3.554305,1.3472 a 0.45049068,1.1805962 2.36571 0 0 -0.498678,1.16065 0.45049068,1.1805962 2.36571 0 0 0.401009,1.19838 0.45049068,1.1805962 2.36571 0 0 0.499195,-1.16117 0.45049068,1.1805962 2.36571 0 0 -0.401526,-1.19786 z m 4.322735,6.58151 a 0.58623153,1.5363308 2.36571 0 0 -0.649053,1.51051 0.58623153,1.5363308 2.36571 0 0 -0.001,0.0362 0.81796587,2.1436346 2.36571 0 0 -0.466647,-0.43511 0.81796587,2.1436346 2.36571 0 0 -0.90537,2.10788 0.81796587,2.1436346 2.36571 0 0 0.728638,2.17558 0.81796587,2.1436346 2.36571 0 0 0.905891,-2.10789 0.81796587,2.1436346 2.36571 0 0 0.0021,-0.39584 0.58623153,1.5363308 2.36571 0 0 0.2589,0.17881 0.58623153,1.5363308 2.36571 0 0 0.649054,-1.51103 0.58623153,1.5363308 2.36571 0 0 -0.52245,-1.55907 z m -12.745994,0.56223 a 0.6557439,1.7185012 2.36571 0 0 -0.726053,1.68982 0.6557439,1.7185012 2.36571 0 0 0.58446,1.74409 0.6557439,1.7185012 2.36571 0 0 0.726054,-1.68982 0.6557439,1.7185012 2.36571 0 0 -0.584461,-1.74409 z m 7.064169,3.43494 a 0.61978239,1.6242572 2.36571 0 0 -0.686264,1.59732 0.61978239,1.6242572 2.36571 0 0 0.552422,1.64848 0.61978239,1.6242572 2.36571 0 0 0.686263,-1.59732 0.61978239,1.6242572 2.36571 0 0 -0.552421,-1.64848 z m 1.232483,2.24327 a 0.18354174,0.48100591 2.36571 0 0 -0.203089,0.47284 0.18354174,0.48100591 2.36571 0 0 0.163298,0.48835 0.18354174,0.48100591 2.36571 0 0 0.203605,-0.47336 0.18354174,0.48100591 2.36571 0 0 -0.163814,-0.48783 z m 4.885487,1.19425 a 0.88059688,2.307771 2.36571 0 0 -0.975135,2.26911 0.88059688,2.307771 2.36571 0 0 0.468711,2.14664 c 0.282464,-0.0606 0.561433,-0.12462 0.833021,-0.1943 a 0.88059688,2.307771 2.36571 0 0 0.45785,-1.87947 0.88059688,2.307771 2.36571 0 0 -0.784447,-2.34198 z m -4.504632,0.94154 a 0.29626682,0.77642334 2.36571 0 0 -0.327629,0.76378 0.29626682,0.77642334 2.36571 0 0 0.26355,0.78807 0.29626682,0.77642334 2.36571 0 0 0.328143,-0.76379 0.29626682,0.77642334 2.36571 0 0 -0.264064,-0.78806 z m 6.908101,0.42116 a 0.51677692,1.3543119 2.36571 0 0 -0.572057,1.3317 0.51677692,1.3543119 2.36571 0 0 0.141083,1.0201 c 0.270825,-0.0982 0.534666,-0.2006 0.785475,-0.30903 a 0.51677692,1.3543119 2.36571 0 0 0.105942,-0.66817 0.51677692,1.3543119 2.36571 0 0 -0.460443,-1.3746 z" /></g></svg>
