<?xml version="1.0" encoding="UTF-8" standalone="no"?>
<!-- Created with Inkscape (http://www.inkscape.org/) -->

<svg
   width="227.93211mm"
   height="273.98367mm"
   viewBox="0 0 227.93211 273.98368"
   version="1.1"
   id="svg23116"
   xml:space="preserve"
   sodipodi:docname="avocado.svg"
   inkscape:version="1.2.2 (b0a8486541, 2022-12-01)"
   xmlns:inkscape="http://www.inkscape.org/namespaces/inkscape"
   xmlns:sodipodi="http://sodipodi.sourceforge.net/DTD/sodipodi-0.dtd"
   xmlns:xlink="http://www.w3.org/1999/xlink"
   xmlns="http://www.w3.org/2000/svg"
   xmlns:svg="http://www.w3.org/2000/svg"><sodipodi:namedview
     id="namedview23118"
     pagecolor="#ffffff"
     bordercolor="#000000"
     borderopacity="0.25"
     inkscape:showpageshadow="2"
     inkscape:pageopacity="0.0"
     inkscape:pagecheckerboard="0"
     inkscape:deskcolor="#d1d1d1"
     inkscape:document-units="mm"
     showgrid="false"
     showguides="false"
     inkscape:zoom="2.9806967"
     inkscape:cx="449.39157"
     inkscape:cy="180.99795"
     inkscape:window-width="1707"
     inkscape:window-height="980"
     inkscape:window-x="0"
     inkscape:window-y="0"
     inkscape:window-maximized="1"
     inkscape:current-layer="layer1"><inkscape:grid
       type="xygrid"
       id="grid30172"
       originx="19.631416"
       originy="-54.634846" /><sodipodi:guide
       position="102.85425,38.036753"
       orientation="1,0"
       id="guide30178"
       inkscape:locked="false" /></sodipodi:namedview><defs
     id="defs23113"><inkscape:path-effect
       effect="powerstroke"
       id="path-effect853"
       is_visible="true"
       lpeversion="1"
       offset_points="0.5302106,0.24481148 | 1.6236179,0.57070784 | 2.3817713,0.41573701"
       not_jump="false"
       sort_points="true"
       interpolator_type="CentripetalCatmullRom"
       interpolator_beta="0.2"
       start_linecap_type="zerowidth"
       linejoin_type="round"
       miter_limit="4"
       scale_width="1"
       end_linecap_type="zerowidth" /><inkscape:path-effect
       effect="bspline"
       id="path-effect849"
       is_visible="true"
       lpeversion="1"
       weight="33.333333"
       steps="2"
       helper_size="0"
       apply_no_weight="true"
       apply_with_weight="true"
       only_selected="false" /><inkscape:path-effect
       effect="powerstroke"
       id="path-effect628"
       is_visible="true"
       lpeversion="1"
       offset_points="0.5302106,0.27210995 | 1.6236179,0.63434639 | 2.3817713,0.46209506"
       not_jump="false"
       sort_points="true"
       interpolator_type="CentripetalCatmullRom"
       interpolator_beta="0.2"
       start_linecap_type="zerowidth"
       linejoin_type="round"
       miter_limit="4"
       scale_width="1"
       end_linecap_type="zerowidth" /><inkscape:path-effect
       effect="bspline"
       id="path-effect624"
       is_visible="true"
       lpeversion="1"
       weight="33.333333"
       steps="2"
       helper_size="0"
       apply_no_weight="true"
       apply_with_weight="true"
       only_selected="false" /><inkscape:path-effect
       effect="powerstroke"
       id="path-effect568"
       is_visible="true"
       lpeversion="1"
       offset_points="0.41381137,0.66916278 | 1.0824119,0.63434639 | 1.5248812,0.35899868"
       not_jump="false"
       sort_points="true"
       interpolator_type="CentripetalCatmullRom"
       interpolator_beta="0.2"
       start_linecap_type="zerowidth"
       linejoin_type="round"
       miter_limit="4"
       scale_width="1"
       end_linecap_type="zerowidth" /><inkscape:path-effect
       effect="bspline"
       id="path-effect564"
       is_visible="true"
       lpeversion="1"
       weight="33.333333"
       steps="2"
       helper_size="0"
       apply_no_weight="true"
       apply_with_weight="true"
       only_selected="false" /><inkscape:path-effect
       effect="powerstroke"
       id="path-effect506"
       is_visible="true"
       lpeversion="1"
       offset_points="0.70694746,0.27210995 | 1.9702023,1.0143219 | 3.47222,0.7125498"
       not_jump="false"
       sort_points="true"
       interpolator_type="CentripetalCatmullRom"
       interpolator_beta="0.2"
       start_linecap_type="zerowidth"
       linejoin_type="round"
       miter_limit="4"
       scale_width="1"
       end_linecap_type="zerowidth" /><inkscape:path-effect
       effect="bspline"
       id="path-effect502"
       is_visible="true"
       lpeversion="1"
       weight="33.333333"
       steps="2"
       helper_size="0"
       apply_no_weight="true"
       apply_with_weight="true"
       only_selected="false" /><inkscape:path-effect
       effect="powerstroke"
       id="path-effect442"
       is_visible="true"
       lpeversion="1"
       offset_points="0.70694746,0.27210995 | 2.0022495,1.1337102 | 3.47222,0.7125498"
       not_jump="false"
       sort_points="true"
       interpolator_type="CentripetalCatmullRom"
       interpolator_beta="0.2"
       start_linecap_type="zerowidth"
       linejoin_type="round"
       miter_limit="4"
       scale_width="1"
       end_linecap_type="zerowidth" /><inkscape:path-effect
       effect="bspline"
       id="path-effect438"
       is_visible="true"
       lpeversion="1"
       weight="33.333333"
       steps="2"
       helper_size="0"
       apply_no_weight="true"
       apply_with_weight="true"
       only_selected="false" /><inkscape:path-effect
       effect="powerstroke"
       id="path-effect8807"
       is_visible="true"
       lpeversion="1"
       offset_points="0.70694746,0.27210995 | 2.1648238,0.63434639 | 3.1756951,0.46209506"
       not_jump="false"
       sort_points="true"
       interpolator_type="CentripetalCatmullRom"
       interpolator_beta="0.2"
       start_linecap_type="zerowidth"
       linejoin_type="round"
       miter_limit="4"
       scale_width="1"
       end_linecap_type="zerowidth" /><inkscape:path-effect
       effect="bspline"
       id="path-effect8803"
       is_visible="true"
       lpeversion="1"
       weight="33.333333"
       steps="2"
       helper_size="0"
       apply_no_weight="true"
       apply_with_weight="true"
       only_selected="false" /><inkscape:path-effect
       effect="powerstroke"
       id="path-effect8741"
       is_visible="true"
       lpeversion="1"
       offset_points="0.70694746,0.27210995 | 2.0022495,1.1337102 | 3.47222,0.7125498"
       not_jump="false"
       sort_points="true"
       interpolator_type="CentripetalCatmullRom"
       interpolator_beta="0.2"
       start_linecap_type="zerowidth"
       linejoin_type="round"
       miter_limit="4"
       scale_width="1"
       end_linecap_type="zerowidth" /><inkscape:path-effect
       effect="bspline"
       id="path-effect8685"
       is_visible="true"
       lpeversion="1"
       weight="33.333333"
       steps="2"
       helper_size="0"
       apply_no_weight="true"
       apply_with_weight="true"
       only_selected="false" /><linearGradient
       id="linearGradient7311">
      <stop
   style="stop-color:#506e2a;stop-opacity:1;"
   offset="0"
   id="stop7363" />
      <stop
   style="stop-color:#84a44a;stop-opacity:1;"
   offset="0.5"
   id="stop7365" />
      <stop
   style="stop-color:#787e2d;stop-opacity:1;"
   offset="1"
   id="stop7367" />
    </linearGradient><linearGradient
       id="linearGradient7331">
      <stop
   style="stop-color:#506e2a;stop-opacity:1;"
   offset="0"
   id="stop7325" />
      <stop
   style="stop-color:#84a44a;stop-opacity:1;"
   offset="0.5"
   id="stop7327" />
      <stop
   style="stop-color:#697e2d;stop-opacity:1;"
   offset="1"
   id="stop7329" />
    </linearGradient><linearGradient
       id="linearGradient7323">
      <stop
   style="stop-color:#5e6e2a;stop-opacity:1;"
   offset="0"
   id="stop7317" />
      <stop
   style="stop-color:#84a44a;stop-opacity:1;"
   offset="0.5"
   id="stop7319" />
      <stop
   style="stop-color:#5f7e2d;stop-opacity:1;"
   offset="1"
   id="stop7321" />
    </linearGradient><linearGradient
       id="linearGradient7311-1">
      <stop
   style="stop-color:#62812f;stop-opacity:1;"
   offset="0"
   id="stop7305" /><stop
   style="stop-color:#628130;stop-opacity:0.76712328;"
   offset="0.66143501"
   id="stop7370" />
      
      <stop
   style="stop-color:#678633;stop-opacity:0;"
   offset="1"
   id="stop7309" />
    </linearGradient><inkscape:path-effect
       effect="bspline"
       id="path-effect1895"
       is_visible="true"
       lpeversion="1"
       weight="33.333333"
       steps="2"
       helper_size="0"
       apply_no_weight="true"
       apply_with_weight="true"
       only_selected="false" /><linearGradient
       inkscape:collect="always"
       id="linearGradient1837"><stop
         style="stop-color:#90784c;stop-opacity:1;"
         offset="0"
         id="stop1833" /><stop
         style="stop-color:#6d4714;stop-opacity:1;"
         offset="1"
         id="stop1835" /></linearGradient><inkscape:path-effect
       effect="bspline"
       id="path-effect16811"
       is_visible="true"
       lpeversion="1"
       weight="33.333333"
       steps="2"
       helper_size="0"
       apply_no_weight="true"
       apply_with_weight="true"
       only_selected="false" /><inkscape:path-effect
       effect="bspline"
       id="path-effect16801"
       is_visible="true"
       lpeversion="1"
       weight="33.333333"
       steps="2"
       helper_size="0"
       apply_no_weight="true"
       apply_with_weight="true"
       only_selected="false" /><inkscape:path-effect
       effect="bspline"
       id="path-effect16784"
       is_visible="true"
       lpeversion="1"
       weight="33.333333"
       steps="2"
       helper_size="0"
       apply_no_weight="true"
       apply_with_weight="true"
       only_selected="false" /><inkscape:path-effect
       effect="bspline"
       id="path-effect16727"
       is_visible="true"
       lpeversion="1"
       weight="33.333333"
       steps="2"
       helper_size="0"
       apply_no_weight="true"
       apply_with_weight="true"
       only_selected="false" /><inkscape:path-effect
       effect="bspline"
       id="path-effect16720"
       is_visible="true"
       lpeversion="1"
       weight="33.333333"
       steps="2"
       helper_size="0"
       apply_no_weight="true"
       apply_with_weight="true"
       only_selected="false" /><linearGradient
       id="linearGradient16559">
      <stop
   style="stop-color:#386e2a;stop-opacity:1;"
   offset="0"
   id="stop16553" /><stop
   style="stop-color:#538c3c;stop-opacity:1;"
   offset="0.16987181"
   id="stop16561" />
      <stop
   style="stop-color:#69a44a;stop-opacity:1;"
   offset="0.62568194"
   id="stop16555" /><stop
   style="stop-color:#55913b;stop-opacity:1;"
   offset="0.8378132"
   id="stop16563" />
      <stop
   style="stop-color:#427e2d;stop-opacity:1;"
   offset="1"
   id="stop16557" />
    </linearGradient><inkscape:path-effect
       effect="bspline"
       id="path-effect15817"
       is_visible="true"
       lpeversion="1"
       weight="33.333333"
       steps="2"
       helper_size="0"
       apply_no_weight="true"
       apply_with_weight="true"
       only_selected="false" /><inkscape:path-effect
       effect="bspline"
       id="path-effect15757"
       is_visible="true"
       lpeversion="1"
       weight="33.333333"
       steps="2"
       helper_size="0"
       apply_no_weight="true"
       apply_with_weight="true"
       only_selected="false" /><inkscape:path-effect
       effect="bspline"
       id="path-effect12351"
       is_visible="true"
       lpeversion="1"
       weight="33.333333"
       steps="2"
       helper_size="0"
       apply_no_weight="true"
       apply_with_weight="true"
       only_selected="false" /><inkscape:path-effect
       effect="bspline"
       id="path-effect12210"
       is_visible="true"
       lpeversion="1"
       weight="33.333333"
       steps="2"
       helper_size="0"
       apply_no_weight="true"
       apply_with_weight="true"
       only_selected="false" /><inkscape:path-effect
       effect="bspline"
       id="path-effect12203"
       is_visible="true"
       lpeversion="1"
       weight="33.333333"
       steps="2"
       helper_size="0"
       apply_no_weight="true"
       apply_with_weight="true"
       only_selected="false" /><inkscape:path-effect
       effect="bspline"
       id="path-effect12026"
       is_visible="true"
       lpeversion="1"
       weight="33.333333"
       steps="2"
       helper_size="0"
       apply_no_weight="true"
       apply_with_weight="true"
       only_selected="false" /><inkscape:path-effect
       effect="bspline"
       id="path-effect12015"
       is_visible="true"
       lpeversion="1"
       weight="33.333333"
       steps="2"
       helper_size="0"
       apply_no_weight="true"
       apply_with_weight="true"
       only_selected="false" /><inkscape:path-effect
       effect="bspline"
       id="path-effect7503"
       is_visible="true"
       lpeversion="1"
       weight="33.333333"
       steps="2"
       helper_size="0"
       apply_no_weight="true"
       apply_with_weight="true"
       only_selected="false" /><linearGradient
       id="linearGradient58565">
      <stop
   style="stop-color:#ffffff;stop-opacity:1;"
   offset="0"
   id="stop58559" />
      <stop
   style="stop-color:#7bbe92;stop-opacity:1"
   offset=".5"
   id="stop58561" />
      <stop
   style="stop-color:#37a276;stop-opacity:1"
   offset="1"
   id="stop58563" />
    </linearGradient><linearGradient
       id="linearGradient58557">
      <stop
   style="stop-color:#ffffff;stop-opacity:1;"
   offset="0"
   id="stop58551" />
      <stop
   style="stop-color:#7bbe92;stop-opacity:1"
   offset=".5"
   id="stop58553" />
      <stop
   style="stop-color:#37a276;stop-opacity:1"
   offset="1"
   id="stop58555" />
    </linearGradient><linearGradient
       id="linearGradient58549">
      <stop
   style="stop-color:#68934a;stop-opacity:0.99215686;"
   offset="0"
   id="stop58543" />
      <stop
   style="stop-color:#9dc481;stop-opacity:1;"
   offset="0.5"
   id="stop58545" />
      <stop
   style="stop-color:#5b8936;stop-opacity:1;"
   offset="1"
   id="stop58547" />
    </linearGradient><linearGradient
       id="linearGradient58541">
      <stop
   style="stop-color:#68934a;stop-opacity:0.99215686;"
   offset="0"
   id="stop58535" />
      <stop
   style="stop-color:#9dc481;stop-opacity:1;"
   offset="0.5"
   id="stop58537" />
      <stop
   style="stop-color:#5b8936;stop-opacity:1;"
   offset="1"
   id="stop58539" />
    </linearGradient><linearGradient
       id="linearGradient58533">
      <stop
   style="stop-color:#569b42;stop-opacity:0.9921568;"
   offset="0"
   id="stop58527" />
      <stop
   style="stop-color:#8cd075;stop-opacity:1;"
   offset="0.5"
   id="stop58529" />
      <stop
   style="stop-color:#488936;stop-opacity:1;"
   offset="1"
   id="stop58531" />
    </linearGradient><linearGradient
       id="linearGradient58525">
      <stop
   style="stop-color:#3ba978;stop-opacity:1"
   offset="0"
   id="stop58519" />
      <stop
   style="stop-color:#ffffff;stop-opacity:1;"
   offset="0.5"
   id="stop58521" />
      <stop
   style="stop-color:#37a276;stop-opacity:1"
   offset="1"
   id="stop58523" />
    </linearGradient><linearGradient
       id="linearGradient55059">
      <stop
   style="stop-color:#f8fdfa;stop-opacity:1;"
   offset="0"
   id="stop55053" />
      <stop
   style="stop-color:#7bbe92;stop-opacity:1"
   offset=".5"
   id="stop55055" />
      <stop
   style="stop-color:#ffffff;stop-opacity:1;"
   offset="1"
   id="stop55057" />
    </linearGradient><linearGradient
       id="linearGradient48565">
      <stop
   style="stop-color:#68934a;stop-opacity:0.99215686;"
   offset="0"
   id="stop48559" />
      <stop
   style="stop-color:#9dc481;stop-opacity:0.92941177;"
   offset="0.5"
   id="stop48561" />
      <stop
   style="stop-color:#5b8936;stop-opacity:1;"
   offset="1"
   id="stop48563" />
    </linearGradient><linearGradient
       id="linearGradient38779">
      <stop
   style="stop-color:#1b7245;stop-opacity:1;"
   offset="0"
   id="stop38773" />
      <stop
   style="stop-color:#3dad6e;stop-opacity:1;"
   offset="0.5"
   id="stop38775" />
      <stop
   style="stop-color:#0f573f;stop-opacity:1;"
   offset="1"
   id="stop38777" />
    </linearGradient><linearGradient
       inkscape:collect="always"
       id="linearGradient32131"><stop
         style="stop-color:#6c5353;stop-opacity:1;"
         offset="0"
         id="stop32127" /><stop
         style="stop-color:#493838;stop-opacity:1;"
         offset="1"
         id="stop32129" /></linearGradient><linearGradient
       inkscape:collect="always"
       id="linearGradient31640"><stop
         style="stop-color:#916f6f;stop-opacity:1;"
         offset="0"
         id="stop31636" /><stop
         style="stop-color:#6c5353;stop-opacity:1;"
         offset="1"
         id="stop31638" /></linearGradient><linearGradient
       id="linearGradient30116">
      <stop
   style="stop-color:#1b722e;stop-opacity:1;"
   offset="0"
   id="stop30110" />
      <stop
   style="stop-color:#3dad53;stop-opacity:1;"
   offset="0.5"
   id="stop30112" />
      <stop
   style="stop-color:#0f5730;stop-opacity:1;"
   offset="1"
   id="stop30114" />
    </linearGradient><linearGradient
       id="linearGradient30108">
      <stop
   style="stop-color:#506e2a;stop-opacity:1;"
   offset="0"
   id="stop30102" />
      <stop
   style="stop-color:#84a44a;stop-opacity:1;"
   offset="0.5"
   id="stop30104" />
      <stop
   style="stop-color:#5f7e2d;stop-opacity:1;"
   offset="1"
   id="stop30106" />
    </linearGradient><inkscape:path-effect
       effect="bspline"
       id="path-effect24496"
       is_visible="true"
       lpeversion="1"
       weight="33.333333"
       steps="2"
       helper_size="0"
       apply_no_weight="true"
       apply_with_weight="true"
       only_selected="false" /><inkscape:path-effect
       effect="bspline"
       id="path-effect24492"
       is_visible="true"
       lpeversion="1"
       weight="33.333333"
       steps="2"
       helper_size="0"
       apply_no_weight="true"
       apply_with_weight="true"
       only_selected="false" /><inkscape:path-effect
       effect="bspline"
       id="path-effect24488"
       is_visible="true"
       lpeversion="1"
       weight="33.333333"
       steps="2"
       helper_size="0"
       apply_no_weight="true"
       apply_with_weight="true"
       only_selected="false" /><linearGradient
       xlink:href="#linearGradient58533"
       id="aQ"
       gradientUnits="userSpaceOnUse"
       x1="-123.4"
       y1="68"
       x2="-35"
       y2="55.200001" /><linearGradient
       id="b">
      <stop
   style="stop-color:#1b7263;stop-opacity:1"
   offset="0"
   id="stop23159" />
      <stop
   style="stop-color:#3dad7a;stop-opacity:1"
   offset=".5"
   id="stop23161" />
      <stop
   style="stop-color:#11615c;stop-opacity:1"
   offset="1"
   id="stop23163" />
    </linearGradient><linearGradient
       xlink:href="#c"
       id="aR"
       gradientUnits="userSpaceOnUse"
       x1="-110.8"
       y1="74.599998"
       x2="-37"
       y2="53.599998" /><linearGradient
       id="c">
      <stop
   style="stop-color:#3ba978;stop-opacity:1"
   offset="0"
   id="stop23152" />
      <stop
   style="stop-color:#7bbe92;stop-opacity:1"
   offset=".5"
   id="stop23154" />
      <stop
   style="stop-color:#37a276;stop-opacity:1"
   offset="1"
   id="stop23156" />
    </linearGradient><linearGradient
       inkscape:collect="always"
       xlink:href="#linearGradient31640"
       id="linearGradient31642"
       x1="58.593369"
       y1="268.79114"
       x2="123.90515"
       y2="268.79114"
       gradientUnits="userSpaceOnUse"
       gradientTransform="translate(0,-10.583333)" /><linearGradient
       inkscape:collect="always"
       xlink:href="#linearGradient32131"
       id="linearGradient32133"
       x1="55.153786"
       y1="238.10107"
       x2="127.34473"
       y2="238.10107"
       gradientUnits="userSpaceOnUse"
       gradientTransform="translate(0,-10.583333)" /><mask
       maskUnits="userSpaceOnUse"
       id="mask40621"><rect
         style="opacity:1;fill:url(#linearGradient40625);fill-opacity:1;stroke:none;stroke-width:0.15;stroke-linecap:round;stroke-dasharray:none;stroke-opacity:0.7;paint-order:fill markers stroke"
         id="rect40623"
         width="31.75"
         height="33.226566"
         x="37.041664"
         y="53.574165"
         rx="1.1545725"
         ry="1.1545725" /></mask><linearGradient
       inkscape:collect="always"
       xlink:href="#linearGradient39839"
       id="linearGradient40625"
       gradientUnits="userSpaceOnUse"
       x1="54.970371"
       y1="77.745987"
       x2="54.970371"
       y2="70.177307" /><linearGradient
       inkscape:collect="always"
       id="linearGradient39839"><stop
         style="stop-color:#ffffff;stop-opacity:0;"
         offset="0"
         id="stop39835" /><stop
         style="stop-color:#ffffff;stop-opacity:1;"
         offset="1"
         id="stop39837" /></linearGradient><radialGradient
       inkscape:collect="always"
       xlink:href="#linearGradient1837"
       id="radialGradient1831"
       cx="81.764313"
       cy="224.20448"
       fx="81.764313"
       fy="224.20448"
       r="8.9975729"
       gradientUnits="userSpaceOnUse"
       gradientTransform="translate(2.2493933,-3.1145446)" /><linearGradient
       inkscape:collect="always"
       xlink:href="#linearGradient30108"
       id="linearGradient1926"
       x1="89.607948"
       y1="168.83479"
       x2="95.376427"
       y2="168.83479"
       gradientUnits="userSpaceOnUse" /><linearGradient
       inkscape:collect="always"
       xlink:href="#linearGradient30108"
       id="linearGradient2699"
       gradientUnits="userSpaceOnUse"
       gradientTransform="matrix(3.0856723,1.2523551,-1.2523551,3.0856723,130.69274,-412.68646)"
       x1="51.514153"
       y1="165.16373"
       x2="51.617584"
       y2="166.8441" /><linearGradient
       id="linearGradient30108-1">
      <stop
   style="stop-color:#72a740;stop-opacity:1;"
   offset="0"
   id="stop30102-3" />
      <stop
   style="stop-color:#94cc4f;stop-opacity:1;"
   offset="0.5"
   id="stop30104-6" />
      <stop
   style="stop-color:#76ad3e;stop-opacity:1;"
   offset="1"
   id="stop30106-7" />
    </linearGradient><linearGradient
       inkscape:collect="always"
       xlink:href="#linearGradient30108"
       id="linearGradient7283"
       gradientUnits="userSpaceOnUse"
       gradientTransform="matrix(-4.2633753,1.730339,1.730339,4.2633753,39.204793,-652.1107)"
       x1="51.514153"
       y1="165.16373"
       x2="51.659805"
       y2="167.43007" /><linearGradient
       inkscape:collect="always"
       xlink:href="#linearGradient30108"
       id="linearGradient7287"
       gradientUnits="userSpaceOnUse"
       gradientTransform="matrix(-4.2633753,1.730339,1.730339,4.2633753,40.17867,-693.82511)"
       x1="48.144363"
       y1="163.33339"
       x2="51.533848"
       y2="168.43298" /><linearGradient
       inkscape:collect="always"
       xlink:href="#linearGradient30108"
       id="linearGradient7291"
       gradientUnits="userSpaceOnUse"
       gradientTransform="matrix(4.2633753,1.730339,-1.730339,4.2633753,149.34731,-691.39042)"
       x1="48.144363"
       y1="163.33339"
       x2="51.533848"
       y2="168.43298" /><linearGradient
       inkscape:collect="always"
       xlink:href="#linearGradient7331"
       id="linearGradient7297"
       gradientUnits="userSpaceOnUse"
       gradientTransform="matrix(4.2633753,1.730339,-1.730339,4.2633753,149.02268,-672.07519)"
       x1="53.606075"
       y1="166.17776"
       x2="48.961212"
       y2="168.99254" /><linearGradient
       inkscape:collect="always"
       xlink:href="#linearGradient7311"
       id="linearGradient7301"
       gradientUnits="userSpaceOnUse"
       gradientTransform="matrix(4.2633753,1.730339,-1.730339,4.2633753,149.34731,-691.39042)"
       x1="53.975887"
       y1="166.02766"
       x2="45.224579"
       y2="164.69426" /><linearGradient
       inkscape:collect="always"
       xlink:href="#linearGradient30108"
       id="linearGradient7303"
       gradientUnits="userSpaceOnUse"
       gradientTransform="matrix(-4.2633753,1.730339,1.730339,4.2633753,40.17867,-693.82511)"
       x1="46.6684"
       y1="162.74791"
       x2="53.934921"
       y2="166.92007" /><linearGradient
       inkscape:collect="always"
       xlink:href="#linearGradient7323"
       id="linearGradient7315"
       gradientUnits="userSpaceOnUse"
       gradientTransform="matrix(-4.2633753,1.730339,1.730339,4.2633753,40.17867,-693.82511)"
       x1="49.139339"
       y1="176.92827"
       x2="54.054836"
       y2="166.81757" /><linearGradient
       inkscape:collect="always"
       xlink:href="#linearGradient7331"
       id="linearGradient7335"
       gradientUnits="userSpaceOnUse"
       gradientTransform="matrix(4.2633753,1.730339,-1.730339,4.2633753,136.62725,-697.32515)"
       x1="55.355335"
       y1="165.8447"
       x2="46.562851"
       y2="171.04277" /><linearGradient
       inkscape:collect="always"
       xlink:href="#linearGradient30108"
       id="linearGradient7339"
       gradientUnits="userSpaceOnUse"
       gradientTransform="matrix(-0.63000726,4.5577991,4.5577991,0.63000726,-630.5911,-243.3115)"
       x1="51.514153"
       y1="165.16373"
       x2="51.659805"
       y2="167.43007" /><linearGradient
       inkscape:collect="always"
       xlink:href="#linearGradient30108"
       id="linearGradient7343"
       gradientUnits="userSpaceOnUse"
       gradientTransform="matrix(-1.9022479,2.0220402,2.1927265,1.7541731,-168.79463,-205.58536)"
       x1="51.514153"
       y1="165.16373"
       x2="51.659805"
       y2="167.43007" /></defs><g
     inkscape:label="Layer 1"
     inkscape:groupmode="layer"
     id="layer1"
     transform="translate(19.631418,-54.634834)"><path
       id="path31634"
       style="opacity:1;fill:#483737;fill-opacity:1;stroke-width:0.264583;stroke-linecap:round"
       d="m 56.517543,231.31466 -1.363759,-10.88633 c 17.267618,-4.44877 54.509066,-3.2791 72.190946,0 l -1.99637,12.2483 c -24.54845,-4.62134 -45.220541,-5.68374 -68.830817,-1.36197 z"
       sodipodi:nodetypes="ccccc" /><path
       style="fill:url(#linearGradient7343);fill-opacity:1;stroke:none;stroke-width:0.737511;stroke-linecap:round;stroke-opacity:1"
       d="m 92.604829,198.58843 c -2.056996,-1.34945 3.345524,-15.39953 10.938121,-11.8781 -2.7853,5.36624 -12.515156,10.11904 -10.643382,11.98317 0.742537,0.73949 -1.0815,-0.6212 -0.295192,-0.10539 z"
       id="path7341"
       sodipodi:nodetypes="scsss"
       inkscape:transform-center-x="-5.5465645"
       inkscape:transform-center-y="-4.8079657" /><path
       style="fill:url(#linearGradient7297);fill-opacity:1;stroke:none;stroke-width:1.21732;stroke-linecap:round;stroke-opacity:1"
       d="m 92.665662,134.45385 c -1.20732,-16.29887 -14.074067,-18.36939 -28.158741,-0.58603 12.560772,-0.64757 18.407156,-11.29075 27.824261,0.95884 l 0.33487,-0.37363 z"
       id="path7295"
       sodipodi:nodetypes="ccccc" /><path
       style="opacity:0.110831;fill:#ffffff;fill-opacity:1;fill-rule:nonzero;stroke:none;stroke-width:3;stroke-linecap:round;stroke-dasharray:none;stroke-opacity:1"
       d="m 93.371346,135.47057 c -0.528876,-0.96457 -1.86181,-3.71144 -3.251901,-5.57524 -0.244882,-0.32833 -0.51186,-0.66273 -0.797246,-0.99311 -0.751248,-0.86971 -1.61635,-1.69662 -2.567127,-2.35247 -0.957433,-0.66044 -1.935172,-1.10238 -2.932379,-1.31704 -0.354469,-0.0763 -0.699811,-0.12132 -1.031375,-0.14403 -0.740089,-0.0507 -1.455523,0.0188 -2.122037,0.14969 -1.048014,0.20577 -2.106335,0.58939 -3.176875,1.07141 -0.105142,0.0473 -0.211107,0.096 -0.317942,0.14582 -2.218102,1.03539 -4.865187,2.7633 -6.127001,3.56427 1.377283,-0.69478 4.111569,-2.09692 6.398581,-2.89961 0.107884,-0.0379 0.214648,-0.0743 0.320337,-0.10935 1.081808,-0.3587 2.106197,-0.5892 3.063828,-0.67814 0.607626,-0.0564 1.227945,-0.0595 1.840638,0.0189 0.274768,0.0351 0.554844,0.0899 0.837286,0.16915 0.791151,0.22195 1.58071,0.62881 2.398442,1.2263 0.820798,0.59973 1.597167,1.33739 2.354044,2.12241 0.285168,0.29578 0.562162,0.59259 0.829144,0.88074 1.577532,1.7026 3.49896,3.80098 4.281583,4.72033 z"
       id="path560"
       inkscape:path-effect="#path-effect564;#path-effect568"
       inkscape:original-d="m 93.371346,135.47057 c 0,0 -5.985089,-8.68521 -8.978126,-13.02835 -4.448417,2.5262 -8.896912,5.05203 -13.345757,7.57765"
       sodipodi:nodetypes="ccc" /><path
       style="fill:url(#linearGradient7283);fill-opacity:1;stroke:none;stroke-width:1.21732;stroke-linecap:round;stroke-opacity:1"
       d="m 93.445141,154.94751 c -1.854051,-3.54582 16.729449,-21.18643 24.710629,-10.3344 -8.11752,6.21873 -25.567371,6.50607 -24.376151,10.70721 0.472577,1.66657 -1.043626,-1.729 -0.334867,-0.37363 z"
       id="path7281"
       sodipodi:nodetypes="scsss" /><path
       style="fill:url(#linearGradient2699);fill-opacity:1;stroke:none;stroke-width:0.881033;stroke-linecap:round;stroke-opacity:1"
       d="m 91.43561,171.43225 c 1.34189,-2.56623 -12.108156,-15.33396 -17.884671,-7.4796 6.026026,2.13692 18.504748,4.70882 17.64258,7.74945 -0.342027,1.20624 0.755339,-1.25138 0.242382,-0.27041 z"
       id="path2689"
       sodipodi:nodetypes="scsss" /><path
       style="opacity:0.11083123;fill:#ffffff;fill-opacity:1;fill-rule:nonzero;stroke:none;stroke-width:3;stroke-linecap:round;stroke-dasharray:none;stroke-opacity:1"
       d="m 94.830318,115.77444 c -0.410462,-0.82393 -1.804165,-3.72137 -3.127643,-5.8026 -0.478343,-0.75221 -0.983118,-1.46871 -1.525086,-2.13489 -0.69511,-0.85442 -1.545796,-1.75112 -2.582354,-2.53125 -1.579724,-1.18892 -3.491166,-2.03486 -5.718594,-2.59878 -2.196349,-0.55605 -4.543721,-0.79755 -6.782976,-0.89246 -0.807006,-0.0342 -1.593464,-0.0489 -2.348562,-0.0477 -1.653681,0.003 -3.264358,0.0771 -4.788865,0.2056 -2.433307,0.2051 -4.705549,0.55264 -6.713749,1.00067 -0.732141,0.16334 -1.434455,0.3412 -2.111393,0.53039 -3.543367,0.9903 -7.038824,2.63698 -8.521977,3.28674 1.638963,-0.51997 5.136378,-1.61581 8.74364,-2.38952 0.673723,-0.14451 1.369906,-0.28039 2.092275,-0.4052 1.978557,-0.34186 4.220798,-0.61222 6.607125,-0.77865 1.496123,-0.10434 3.07845,-0.16975 4.698505,-0.18135 0.740601,-0.005 1.510562,-5.9e-4 2.301676,0.0185 2.199015,0.053 4.468574,0.21397 6.59135,0.65848 2.145576,0.44928 3.985798,1.15548 5.526165,2.1902 1.016081,0.68253 1.874786,1.49118 2.594397,2.28835 0.559722,0.62004 1.091643,1.29125 1.606568,2.00562 1.427584,1.98051 2.998079,4.77156 3.459498,5.57785 z"
       id="path156"
       inkscape:path-effect="#path-effect8803;#path-effect8807"
       inkscape:original-d="m 94.830318,115.77444 c -2.099949,-3.92792 -4.200123,-7.85602 -6.300644,-11.78455 -4.394719,-0.69982 -8.789438,-1.39986 -13.184687,-2.10021 -4.93923,0.3892 -9.878423,0.77811 -14.818186,1.16678 -3.305698,1.24487 -6.611529,2.48941 -9.917682,3.73372"
       sodipodi:nodetypes="ccccc" /><path
       style="opacity:1;fill:#ffff00;stroke:url(#linearGradient1926);stroke-width:3;stroke-linecap:round;stroke-dasharray:none;stroke-opacity:1"
       d="m 91.107945,225.76175 c 0.922821,-37.11835 1.84565,-74.23697 2.768484,-111.35584"
       id="path1893"
       inkscape:path-effect="#path-effect1895"
       inkscape:original-d="m 91.107945,225.76175 c 0.923092,-37.11834 1.845921,-74.23697 2.768484,-111.35584"
       sodipodi:nodetypes="cc" /><path
       style="fill:url(#linearGradient7339);fill-opacity:1;stroke:none;stroke-width:1.21732;stroke-linecap:round;stroke-opacity:1;opacity:0.62216625"
       d="m 95.709248,112.74013 c -3.997911,-0.16448 -10.000666,-25.074408 3.387022,-26.569589 1.33385,10.13842 -7.131637,25.399989 -2.896992,26.465989 1.679874,0.42286 -2.019143,0.0407 -0.490935,0.10353 z"
       id="path7337"
       sodipodi:nodetypes="scsss"
       inkscape:transform-center-x="1.708049"
       inkscape:transform-center-y="-14.523884" /><path
       style="fill:url(#linearGradient7301);fill-opacity:1;stroke:none;stroke-width:1.21732;stroke-linecap:round;stroke-opacity:1;opacity:0.91183879"
       d="M 95.106955,115.66779 C 93.899635,99.368918 72.145222,64.501602 50.918782,90.88754 c 6.230571,3.41025 29.080263,3.164693 43.853693,25.15306 l 0.33487,-0.37363 z"
       id="path7293"
       sodipodi:nodetypes="ccccc" /><path
       style="opacity:0.110831;fill:#ffffff;fill-opacity:1;fill-rule:nonzero;stroke:none;stroke-width:3;stroke-linecap:round;stroke-dasharray:none;stroke-opacity:1"
       d="m 94.050615,115.84412 c -0.428903,-1.34008 -1.7193,-5.5749 -3.138774,-8.81201 -0.07523,-0.17157 -0.151179,-0.34166 -0.22789,-0.5103 -1.020037,-2.2424 -2.45536,-4.90724 -4.599242,-7.304878 -2.140408,-2.393751 -4.811317,-4.335504 -7.407078,-5.830533 -0.696611,-0.401213 -1.377428,-0.764242 -2.026987,-1.089511 -2.151198,-1.077221 -4.224473,-1.886619 -5.988978,-2.466863 -1.934733,-0.636222 -3.631142,-1.041014 -5.163755,-1.310654 -0.464893,-0.08179 -0.940637,-0.152805 -1.425218,-0.213446 -2.242176,-0.28059 -4.666074,-0.303939 -5.510211,-0.333369 0.836063,0.148406 3.213244,0.590834 5.369637,1.108171 0.470218,0.11281 0.919674,0.225504 1.370384,0.34194 1.467169,0.379025 3.103952,0.869506 4.96682,1.544007 1.699484,0.615343 3.723741,1.433257 5.816471,2.466227 0.633689,0.312788 1.299552,0.656874 1.982648,1.033734 2.550053,1.406847 5.179596,3.182682 7.329651,5.390478 2.157794,2.215737 3.681207,4.722777 4.795758,6.901287 0.08331,0.16284 0.166124,0.32715 0.24852,0.49302 1.555123,3.13061 3.105811,7.2749 3.608244,8.5927 z"
       id="path620"
       inkscape:path-effect="#path-effect624;#path-effect628"
       inkscape:original-d="M 94.050615,115.84412 C 91.975374,109.92064 89.899877,103.99692 87.823988,98.072567 81.583025,95.077187 75.342666,92.081958 69.101047,89.085988 65.588234,88.715197 62.075451,88.344052 58.562482,87.972556"
       sodipodi:nodetypes="cccc"
       inkscape:transform-center-x="17.983382"
       inkscape:transform-center-y="-12.255664" /><path
       style="opacity:0.763224;fill:url(#linearGradient7303);fill-opacity:1;stroke:none;stroke-width:1.21732;stroke-linecap:round;stroke-opacity:1"
       d="m 94.419018,113.2331 c 1.207324,-16.298875 11.463052,-38.640252 28.897802,-28.433037 -6.23057,3.41025 -13.78989,6.817477 -28.563324,28.805847 l -1.3932,-0.37363 z"
       id="path7299"
       sodipodi:nodetypes="ccccc" /><g
       id="g2695"
       transform="matrix(3.0856726,1.2523553,-1.2523553,3.0856726,128.26512,-381.44403)" /><path
       style="fill:url(#linearGradient7335);fill-opacity:1;stroke:none;stroke-width:1.21732;stroke-linecap:round;stroke-opacity:1"
       d="m 94.272477,112.18798 c -1.20732,-16.29887 -39.324022,-21.123931 -50.654156,-1.9633 12.560772,-0.64757 40.902571,-9.91348 50.319676,2.33611 l 0.33487,-0.37363 z"
       id="path7333"
       sodipodi:nodetypes="ccccc" /><path
       style="opacity:0.11083123;fill:#ffffff;fill-opacity:1;fill-rule:nonzero;stroke:none;stroke-width:3;stroke-linecap:round;stroke-dasharray:none;stroke-opacity:1"
       d="m 94.830318,115.77444 c -0.410462,-0.82393 -1.804165,-3.72137 -3.127643,-5.8026 -0.478343,-0.75221 -0.983118,-1.46871 -1.525086,-2.13489 -0.69511,-0.85442 -1.545796,-1.75112 -2.582354,-2.53125 -1.579724,-1.18892 -3.491166,-2.03486 -5.718594,-2.59878 -2.196349,-0.55605 -4.543721,-0.79755 -6.782976,-0.89246 -0.807006,-0.0342 -1.593464,-0.0489 -2.348562,-0.0477 -1.653681,0.003 -3.264358,0.0771 -4.788865,0.2056 -2.433307,0.2051 -4.705549,0.55264 -6.713749,1.00067 -0.732141,0.16334 -1.434455,0.3412 -2.111393,0.53039 -3.543367,0.9903 -7.038824,2.63698 -8.521977,3.28674 1.638963,-0.51997 5.136378,-1.61581 8.74364,-2.38952 0.673723,-0.14451 1.369906,-0.28039 2.092275,-0.4052 1.978557,-0.34186 4.220798,-0.61222 6.607125,-0.77865 1.496123,-0.10434 3.07845,-0.16975 4.698505,-0.18135 0.740601,-0.005 1.510562,-5.9e-4 2.301676,0.0185 2.199015,0.053 4.468574,0.21397 6.59135,0.65848 2.145576,0.44928 3.985798,1.15548 5.526165,2.1902 1.016081,0.68253 1.874786,1.49118 2.594397,2.28835 0.559722,0.62004 1.091643,1.29125 1.606568,2.00562 1.427584,1.98051 2.998079,4.77156 3.459498,5.57785 z"
       id="path8799"
       inkscape:path-effect="#path-effect8803;#path-effect8807"
       inkscape:original-d="m 94.830318,115.77444 c -2.099949,-3.92792 -4.200123,-7.85602 -6.300644,-11.78455 -4.394719,-0.69982 -8.789438,-1.39986 -13.184687,-2.10021 -4.93923,0.3892 -9.878423,0.77811 -14.818186,1.16678 -3.305698,1.24487 -6.611529,2.48941 -9.917682,3.73372"
       sodipodi:nodetypes="ccccc" /><circle
       style="opacity:1;fill:url(#radialGradient1831);fill-opacity:1;stroke-width:0.264583;stroke-linecap:round"
       id="path540"
       cx="81.591278"
       cy="222.82024"
       r="8.9975729" /><path
       id="rect30174"
       style="opacity:1;fill:url(#linearGradient31642);fill-opacity:1;stroke-width:0.264583;stroke-linecap:round"
       d="m 58.593367,220.98442 8.995833,71.81009 c 12.854552,3.32335 35.43739,3.18397 47.32012,0 l 8.99583,-71.81009 c -22.2092,4.18097 -43.95136,3.90995 -65.311783,0 z"
       sodipodi:nodetypes="ccccc" /><path
       id="path31632"
       style="opacity:1;fill:url(#linearGradient32133);fill-opacity:1;stroke-width:0.264583;stroke-linecap:round"
       d="m 55.153784,220.42833 1.363759,10.88633 c 17.267618,4.44877 51.148937,4.64107 68.830817,1.36197 l 1.99637,-12.2483 c -24.54845,4.62134 -48.58067,4.32177 -72.190946,0 z"
       sodipodi:nodetypes="ccccc" /><path
       style="fill:url(#linearGradient7291);fill-opacity:1;stroke:none;stroke-width:1.21732;stroke-linecap:round;stroke-opacity:1"
       d="M 95.106955,115.66779 C 93.899635,99.368918 42.474594,103.87837 35.369373,144.38553 58.356733,139.30261 73.342239,102.5454 94.772475,116.0406 l 0.33487,-0.37363 z"
       id="path7289"
       sodipodi:nodetypes="ccccc" /><path
       style="opacity:0.11335013;fill:#ffffff;fill-opacity:1;fill-rule:nonzero;stroke:none;stroke-width:3;stroke-linecap:round;stroke-dasharray:none;stroke-opacity:1"
       d="m 94.830318,115.77444 c -0.616676,-0.54066 -2.725894,-2.41635 -4.604214,-3.65328 -0.690156,-0.45449 -1.396036,-0.86437 -2.133552,-1.22262 -0.984527,-0.47823 -2.12751,-0.92681 -3.458021,-1.21353 -2.065452,-0.4451 -4.524731,-0.48834 -7.342236,-0.006 -2.715646,0.46475 -5.624229,1.39523 -8.577014,2.75705 -1.3e-5,10e-6 -0.04015,0.0185 -0.04017,0.0185 -2.795603,1.29286 -5.835815,3.04093 -8.853252,5.11339 -2.948617,2.02519 -5.627029,4.18991 -7.795752,6.24335 -2.376735,2.25039 -4.081879,4.31459 -5.272942,5.91588 -0.08537,0.11478 -0.16963,0.22963 -0.252787,0.34447 -1.779226,2.45711 -3.311608,5.35628 -3.82541,6.23832 0.471349,-0.54084 3.090168,-3.41728 4.89135,-5.36619 0.0032,-0.003 0.280519,-0.30331 0.28368,-0.30673 1.32077,-1.42714 3.120938,-3.30241 5.503623,-5.3585 2.188946,-1.88891 4.835088,-3.90443 7.737128,-5.83296 2.974452,-1.97665 5.892061,-3.64619 8.555853,-4.94227 -2.2e-5,1e-5 0.03809,-0.0185 0.03806,-0.0185 2.800419,-1.36034 5.476983,-2.41511 7.981778,-3.08663 2.588183,-0.69388 4.86691,-0.94403 6.824595,-0.77405 1.26744,0.11005 2.39305,0.39659 3.385284,0.77394 0.73932,0.28116 1.45807,0.62664 2.166056,1.02454 1.947953,1.0948 4.120835,2.84011 4.787934,3.35193 z"
       id="path8683"
       inkscape:path-effect="#path-effect8685;#path-effect8741"
       inkscape:original-d="m 94.830318,115.77444 c -3.033379,-2.48888 -6.067023,-4.97803 -9.100931,-7.46744 -5.36706,1.20597 -10.73417,2.41163 -16.101653,3.61704 -6.222719,4.27857 -12.445455,8.5567 -18.668581,12.83465 -2.761184,3.85074 -5.522524,7.70106 -8.284181,11.55118" /><path
       style="fill:url(#linearGradient7315);fill-opacity:1;stroke:none;stroke-width:1.21732;stroke-linecap:round;stroke-opacity:1"
       d="m 94.419018,113.2331 c 15.898212,-8.72389 45.665262,5.66194 42.440962,47.77592 -16.10101,-17.2488 -18.38079,-37.94381 -42.106484,-47.40311 l -0.334867,-0.37363 z"
       id="path7313"
       sodipodi:nodetypes="ccccc" /><path
       style="opacity:0.11335;fill:#ffffff;fill-opacity:1;fill-rule:nonzero;stroke:none;stroke-width:3;stroke-linecap:round;stroke-dasharray:none;stroke-opacity:1"
       d="m 94.574207,113.85875 c 0.535778,-0.19514 2.255575,-0.88741 3.821393,-1.11917 0.567281,-0.084 1.145089,-0.12088 1.74204,-0.098 0.12444,0.005 0.25158,0.0125 0.38145,0.0234 0.70592,0.0592 1.49311,0.21275 2.37773,0.50513 1.61634,0.53423 3.55745,1.53101 5.73513,3.02168 2.11034,1.44457 4.33332,3.27775 6.57784,5.43873 1e-5,1e-5 0.0305,0.0294 0.0305,0.0294 2.13269,2.05594 4.39137,4.54553 6.60924,7.34484 2.16383,2.7311 4.0574,5.46585 5.55528,7.93885 1.63052,2.69197 2.76288,5.03188 3.57778,6.79727 -0.002,-0.005 0.17707,0.38394 0.17497,0.3794 1.11039,2.40986 2.71234,5.95596 2.99314,6.61531 -0.21596,-0.99748 -0.77713,-4.22836 -1.70981,-7.11526 -0.0436,-0.13492 -0.0882,-0.27018 -0.13394,-0.40573 -0.63775,-1.8909 -1.62135,-4.38111 -3.18615,-7.25603 -1.42781,-2.62322 -3.30594,-5.50983 -5.48418,-8.34727 -2.22911,-2.90371 -4.58012,-5.5059 -6.83915,-7.59953 1e-5,1e-5 -0.0325,-0.03 -0.0325,-0.03 -2.38773,-2.20828 -4.85905,-3.98522 -7.21056,-5.28817 -2.43494,-1.34918 -4.62315,-2.12685 -6.4279,-2.44513 -0.9875,-0.17416 -1.84706,-0.20865 -2.59681,-0.17561 -0.13809,0.006 -0.27267,0.0145 -0.40381,0.0247 -0.629788,0.0493 -1.224485,0.1518 -1.799445,0.29603 -1.560327,0.39141 -3.259889,1.22948 -3.752258,1.46527 z"
       id="path434"
       inkscape:path-effect="#path-effect438;#path-effect442"
       inkscape:original-d="m 94.574207,113.85875 c 2.42864,-1.02056 4.85734,-2.04153 7.286093,-3.06289 4.73148,2.80586 9.46309,5.61145 14.19513,8.41691 4.5955,5.99249 9.19114,11.98456 13.78721,17.97657 1.43571,4.51565 2.8717,9.03095 4.30804,13.54615"
       inkscape:transform-center-x="-17.136215"
       inkscape:transform-center-y="18.222065"
       sodipodi:nodetypes="ccccc" /><path
       style="fill:url(#linearGradient7287);fill-opacity:1;stroke:none;stroke-width:1.21732;stroke-linecap:round;stroke-opacity:1"
       d="m 94.419018,113.2331 c 1.207324,-16.298875 57.372062,-38.181162 64.477282,2.326 -6.23057,3.41025 -49.36937,-23.94156 -64.142804,-1.95319 l -1.09469,-1.16135 z"
       id="path7285"
       sodipodi:nodetypes="ccccc" /><path
       style="opacity:0.11335;fill:#ffffff;fill-opacity:1;fill-rule:nonzero;stroke:none;stroke-width:3;stroke-linecap:round;stroke-dasharray:none;stroke-opacity:1"
       d="m 94.642076,113.32204 c 0.204922,-0.4777 0.8157,-2.03149 1.651976,-3.2668 0.303855,-0.44884 0.647456,-0.88366 1.045434,-1.30581 0.537027,-0.56965 1.231528,-1.16444 2.152834,-1.77186 1.42622,-0.9403 3.40407,-1.91658 5.90134,-2.81327 2.26271,-0.81246 4.86557,-1.52842 7.7354,-2.08598 0.18068,-0.0351 0.36376,-0.0697 0.54921,-0.10384 2.92826,-0.53838 6.29471,-0.91304 9.88153,-1.06502 3.48808,-0.1478 6.81694,-0.069 9.69659,0.1765 3.14369,0.26805 5.70745,0.7345 7.60289,1.10683 -0.0153,-0.003 0.42521,0.0836 0.40989,0.0806 2.5492,0.50148 6.48264,1.28926 7.11837,1.43207 -0.93479,-0.40669 -3.87472,-1.84329 -6.77429,-2.76795 -0.13502,-0.0431 -0.27098,-0.0855 -0.40786,-0.12712 -1.89961,-0.57828 -4.49946,-1.218342 -7.75526,-1.608558 -2.96014,-0.354782 -6.397,-0.497417 -9.97081,-0.371867 -3.67277,0.129027 -7.16372,0.529321 -10.18831,1.14208 -0.19233,0.03897 -0.38215,0.07865 -0.56944,0.119005 -2.97235,0.64034 -5.65141,1.54527 -7.93474,2.57992 -2.52601,1.14462 -4.47148,2.40248 -5.842936,3.58326 -0.886171,0.76296 -1.527552,1.48893 -2.020996,2.14504 -0.366698,0.48759 -0.673873,0.97517 -0.938715,1.46906 -0.717685,1.33836 -1.196224,2.97856 -1.342107,3.45374 z"
       id="path498"
       inkscape:path-effect="#path-effect502;#path-effect506"
       inkscape:original-d="m 94.642076,113.32204 c 0.822544,-2.24158 1.64486,-4.48353 2.466949,-6.72584 5.040695,-2.20254 10.081245,-4.40534 15.121935,-6.608561 7.54819,-0.231341 15.09611,-0.463041 22.64423,-0.695126 4.50416,1.471377 9.00819,2.942317 13.51235,4.412917"
       inkscape:transform-center-x="-25.900418"
       inkscape:transform-center-y="-4.9798013"
       sodipodi:nodetypes="ccccc" /><path
       style="opacity:0.110831;fill:#ffffff;fill-opacity:1;fill-rule:nonzero;stroke:none;stroke-width:2.69904;stroke-linecap:round;stroke-dasharray:none;stroke-opacity:1"
       d="m 95.686886,110.3375 c 0.494335,-1.28477 2.061672,-5.37831 3.404559,-8.40815 0.07135,-0.16098 0.142543,-0.3203 0.213634,-0.47805 0.950901,-2.110064 2.161961,-4.518116 3.599801,-6.540035 1.43089,-2.012151 2.97353,-3.491284 4.46536,-4.620029 0.39947,-0.30224 0.78795,-0.573841 1.15971,-0.818942 1.22759,-0.809332 2.43666,-1.424737 3.54206,-1.903037 1.20852,-0.522923 2.38129,-0.919752 3.50723,-1.239519 0.34548,-0.09812 0.69727,-0.194706 1.07266,-0.292974 1.72233,-0.450868 3.80168,-0.87697 4.52548,-1.018547 -0.73303,0.03481 -2.85875,0.08418 -4.66156,0.32328 -0.38988,0.05171 -0.76587,0.111134 -1.12642,0.178728 -1.18802,0.222724 -2.43296,0.547855 -3.72671,1.047641 -1.18348,0.457187 -2.46734,1.083481 -3.76496,1.954098 -0.39166,0.262782 -0.79786,0.557897 -1.21229,0.888393 -1.54971,1.235825 -3.09799,2.872291 -4.48059,5.028392 -1.38009,2.152165 -2.492557,4.670358 -3.350479,6.821251 -0.06453,0.16179 -0.128958,0.32519 -0.193308,0.49019 -1.217087,3.12079 -2.539613,7.26463 -2.974177,8.58731 z"
       id="path845"
       inkscape:path-effect="#path-effect849;#path-effect853"
       inkscape:original-d="m 95.686886,110.3375 c 2.072179,-5.81308 4.144113,-11.626478 6.215934,-17.440572 3.37643,-2.257518 6.75184,-4.514793 10.12797,-6.772991 3.04949,-0.368353 6.09771,-0.736848 9.14659,-1.10572"
       sodipodi:nodetypes="cccc"
       inkscape:transform-center-x="-13.694492"
       inkscape:transform-center-y="-13.968616" /></g></svg>
